<svg width="1305" height="1227" viewBox="0 0 1305 1227" fill="none" xmlns="http://www.w3.org/2000/svg">
<rect x="-6.5" y="6.5" width="1292" height="1214" rx="79.5" transform="matrix(-1 0 0 1 1292 0)" fill="#FF4D6F"/>
<g filter="url(#filter0_d_2_30)">
<path d="M239.054 589H197.506L317.676 261.727H358.585L478.756 589H437.207L339.409 313.503H336.852L239.054 589ZM254.395 461.159H421.866V496.315H254.395V461.159ZM529.732 589V261.727H640.315C665.989 261.727 686.977 266.361 703.276 275.63C719.683 284.792 731.827 297.203 739.711 312.864C747.594 328.524 751.536 345.996 751.536 365.278C751.536 384.561 747.594 402.086 739.711 417.853C731.934 433.62 719.896 446.191 703.596 455.566C687.296 464.835 666.415 469.469 640.954 469.469H561.692V434.312H639.675C657.254 434.312 671.369 431.276 682.023 425.204C692.676 419.131 700.4 410.928 705.194 400.594C710.094 390.154 712.545 378.382 712.545 365.278C712.545 352.175 710.094 340.456 705.194 330.122C700.4 319.788 692.623 311.692 681.863 305.832C671.103 299.866 656.827 296.884 639.036 296.884H569.363V589H529.732ZM795.402 589H753.853L874.024 261.727H914.933L1035.1 589H993.555L895.757 313.503H893.2L795.402 589ZM810.743 461.159H978.214V496.315H810.743V461.159Z" fill="white"/>
<path d="M1130.82 261.727L1127.63 496.955H1090.55L1087.36 261.727H1130.82ZM1109.09 591.557C1101.21 591.557 1094.44 588.734 1088.8 583.087C1083.15 577.441 1080.33 570.676 1080.33 562.793C1080.33 554.909 1083.15 548.144 1088.8 542.498C1094.44 536.852 1101.21 534.028 1109.09 534.028C1116.97 534.028 1123.74 536.852 1129.39 542.498C1135.03 548.144 1137.86 554.909 1137.86 562.793C1137.86 568.013 1136.52 572.807 1133.86 577.175C1131.3 581.543 1127.84 585.058 1123.47 587.722C1119.21 590.278 1114.42 591.557 1109.09 591.557Z" fill="#EABABA"/>
<path d="M235.95 899.1C235.95 891.6 237.75 885.15 241.35 879.75C244.95 874.35 250.35 870.15 257.55 867.15C265.05 864.15 274.65 862.65 286.35 862.65C298.95 862.65 310.8 864.3 321.9 867.6C333 870.6 343.8 875.7 354.3 882.9V861.75C352.2 859.05 348.15 855.6 342.15 851.4C336.15 846.9 328.05 843 317.85 839.7C307.95 836.1 295.5 834.3 280.5 834.3C255 834.3 235.05 840.45 220.65 852.75C206.55 864.75 199.5 880.8 199.5 900.9C199.5 915 202.8 927 209.4 936.9C216 946.8 224.7 954.45 235.5 959.85C246.6 964.95 258.45 967.5 271.05 967.5C282.45 967.5 293.85 965.4 305.25 961.2C316.95 957 326.7 950.55 334.5 941.85C342.6 933.15 346.65 922.2 346.65 909L339.45 882C339.45 892.8 336.75 902.4 331.35 910.8C326.25 918.9 319.2 925.2 310.2 929.7C301.5 934.2 291.6 936.45 280.5 936.45C271.8 936.45 264 935.1 257.1 932.4C250.5 929.4 245.25 925.05 241.35 919.35C237.75 913.65 235.95 906.9 235.95 899.1ZM230.55 803.7C233.85 801.3 238.35 798.45 244.05 795.15C249.75 791.85 256.65 789 264.75 786.6C273.15 784.2 282.45 783 292.65 783C298.95 783 304.95 783.6 310.65 784.8C316.35 786 321.3 787.95 325.5 790.65C330 793.35 333.45 797.1 335.85 801.9C338.25 806.4 339.45 812.25 339.45 819.45V963H375.45V814.5C375.45 801 372 789.6 365.1 780.3C358.5 771 349.05 763.95 336.75 759.15C324.75 754.05 310.65 751.5 294.45 751.5C275.25 751.5 258.75 754.35 244.95 760.05C231.45 765.75 220.8 771.45 213 777.15L230.55 803.7ZM420.65 756V789.75H524.15V756H420.65ZM520.55 655.2L540.35 625.5C538.25 622.5 535.25 619.65 531.35 616.95C527.75 614.25 523.4 612 518.3 610.2C513.2 608.4 507.35 607.5 500.75 607.5C488.15 607.5 477.35 610.2 468.35 615.6C459.65 620.7 452.9 628.5 448.1 639C443.3 649.5 440.9 663 440.9 679.5V963H476.9V684C476.9 674.1 477.8 666.15 479.6 660.15C481.4 654.15 483.8 649.95 486.8 647.55C490.1 644.85 494 643.5 498.5 643.5C502.1 643.5 505.85 644.25 509.75 645.75C513.95 646.95 517.55 650.1 520.55 655.2ZM533.66 756V789.75H637.16V756H533.66ZM567.41 684V963H603.41V684H567.41ZM753.366 967.5C775.566 967.5 794.766 963.15 810.966 954.45C827.466 945.45 841.116 932.25 851.916 914.85L822.666 896.4C815.166 909 806.016 918.45 795.216 924.75C784.416 930.75 771.966 933.75 757.866 933.75C743.766 933.75 731.766 930.75 721.866 924.75C711.966 918.75 704.466 910.05 699.366 898.65C694.266 887.25 691.716 873.45 691.716 857.25C692.016 841.35 694.716 828 699.816 817.2C705.216 806.1 712.716 797.7 722.316 792C732.216 786 744.066 783 757.866 783C769.566 783 779.766 785.55 788.466 790.65C797.166 795.75 803.916 802.8 808.716 811.8C813.816 820.8 816.366 831.45 816.366 843.75C816.366 845.85 815.916 848.55 815.016 851.85C814.116 854.85 813.216 857.1 812.316 858.6L826.716 837.9H678.216V868.5H855.066C855.066 867.9 855.066 866.55 855.066 864.45C855.366 862.05 855.516 859.8 855.516 857.7C855.516 835.8 851.616 816.9 843.816 801C836.016 785.1 824.766 772.95 810.066 764.55C795.666 755.85 778.266 751.5 757.866 751.5C737.466 751.5 719.466 756 703.866 765C688.566 774 676.566 786.6 667.866 802.8C659.466 819 655.266 837.9 655.266 859.5C655.266 880.8 659.316 899.55 667.416 915.75C675.816 931.95 687.366 944.7 702.066 954C717.066 963 734.166 967.5 753.366 967.5ZM940.857 756H904.857V963H940.857V756ZM1003.41 795.6L1023.21 765.9C1017.81 760.2 1011.81 756.45 1005.21 754.65C998.907 752.55 992.007 751.5 984.507 751.5C974.907 751.5 965.457 755.25 956.157 762.75C946.857 770.25 939.207 780.45 933.207 793.35C927.507 805.95 924.657 820.5 924.657 837H940.857C940.857 827.1 941.757 818.25 943.557 810.45C945.657 802.65 949.257 796.5 954.357 792C959.457 787.5 966.507 785.25 975.507 785.25C981.507 785.25 986.457 786.15 990.357 787.95C994.257 789.45 998.607 792 1003.41 795.6Z" fill="#FCC7C7"/>
<path d="M239.054 589V590H239.76L239.996 589.335L239.054 589ZM197.506 589L196.567 588.655L196.073 590H197.506V589ZM317.676 261.727V260.727H316.978L316.737 261.383L317.676 261.727ZM358.585 261.727L359.524 261.383L359.283 260.727H358.585V261.727ZM478.756 589V590H480.188L479.694 588.655L478.756 589ZM437.207 589L436.265 589.335L436.501 590H437.207V589ZM339.409 313.503L340.351 313.168L340.115 312.503H339.409V313.503ZM336.852 313.503V312.503H336.146L335.91 313.168L336.852 313.503ZM254.395 461.159V460.159H253.395V461.159H254.395ZM421.866 461.159H422.866V460.159H421.866V461.159ZM421.866 496.315V497.315H422.866V496.315H421.866ZM254.395 496.315H253.395V497.315H254.395V496.315ZM239.054 588H197.506V590H239.054V588ZM198.444 589.345L318.615 262.072L316.737 261.383L196.567 588.655L198.444 589.345ZM317.676 262.727H358.585V260.727H317.676V262.727ZM357.647 262.072L477.817 589.345L479.694 588.655L359.524 261.383L357.647 262.072ZM478.756 588H437.207V590H478.756V588ZM438.15 588.665L340.351 313.168L338.467 313.837L436.265 589.335L438.15 588.665ZM339.409 312.503H336.852V314.503H339.409V312.503ZM335.91 313.168L238.112 588.665L239.996 589.335L337.795 313.837L335.91 313.168ZM254.395 462.159H421.866V460.159H254.395V462.159ZM420.866 461.159V496.315H422.866V461.159H420.866ZM421.866 495.315H254.395V497.315H421.866V495.315ZM255.395 496.315V461.159H253.395V496.315H255.395ZM529.732 589H528.732V590H529.732V589ZM529.732 261.727V260.727H528.732V261.727H529.732ZM703.276 275.63L702.782 276.499L702.789 276.503L703.276 275.63ZM739.711 312.864L738.818 313.313L739.711 312.864ZM739.711 417.853L738.816 417.406L738.814 417.411L739.711 417.853ZM703.596 455.566L704.09 456.435L704.094 456.433L703.596 455.566ZM561.692 469.469H560.692V470.469H561.692V469.469ZM561.692 434.312V433.312H560.692V434.312H561.692ZM682.023 425.204L681.528 424.335L682.023 425.204ZM705.194 400.594L704.289 400.17L704.287 400.174L705.194 400.594ZM705.194 330.122L704.287 330.543L704.29 330.551L705.194 330.122ZM681.863 305.832L681.378 306.707L681.385 306.711L681.863 305.832ZM569.363 296.884V295.884H568.363V296.884H569.363ZM569.363 589V590H570.363V589H569.363ZM530.732 589V261.727H528.732V589H530.732ZM529.732 262.727H640.315V260.727H529.732V262.727ZM640.315 262.727C665.877 262.727 686.678 267.342 702.782 276.499L703.771 274.761C687.275 265.381 666.101 260.727 640.315 260.727V262.727ZM702.789 276.503C719.034 285.575 731.031 297.844 738.818 313.313L740.604 312.414C732.624 296.562 720.331 284.009 703.764 274.757L702.789 276.503ZM738.818 313.313C746.624 328.821 750.536 346.136 750.536 365.278H752.536C752.536 345.855 748.565 328.227 740.604 312.414L738.818 313.313ZM750.536 365.278C750.536 384.421 746.624 401.79 738.817 417.406L740.605 418.3C748.565 402.382 752.536 384.702 752.536 365.278H750.536ZM738.814 417.411C731.131 432.987 719.238 445.416 703.097 454.699L704.094 456.433C720.554 446.966 732.737 434.253 740.608 418.295L738.814 417.411ZM703.102 454.697C686.997 463.854 666.302 468.469 640.954 468.469V470.469C666.529 470.469 687.595 465.815 704.09 456.435L703.102 454.697ZM640.954 468.469H561.692V470.469H640.954V468.469ZM562.692 469.469V434.312H560.692V469.469H562.692ZM561.692 435.312H639.675V433.312H561.692V435.312ZM639.675 435.312C657.356 435.312 671.662 432.26 682.518 426.073L681.528 424.335C671.076 430.292 657.151 433.312 639.675 433.312V435.312ZM682.518 426.073C693.337 419.906 701.213 411.552 706.101 401.015L704.287 400.174C699.587 410.304 692.015 418.357 681.528 424.335L682.518 426.073ZM706.099 401.019C711.07 390.429 713.545 378.509 713.545 365.278H711.545C711.545 378.255 709.119 389.879 704.289 400.17L706.099 401.019ZM713.545 365.278C713.545 352.048 711.07 340.18 706.097 329.694L704.29 330.551C709.119 340.732 711.545 352.301 711.545 365.278H713.545ZM706.101 329.701C701.21 319.158 693.274 310.908 682.341 304.954L681.385 306.711C691.971 312.476 699.59 320.419 704.287 330.543L706.101 329.701ZM682.348 304.958C671.388 298.881 656.926 295.884 639.036 295.884V297.884C656.729 297.884 670.818 300.852 681.378 306.707L682.348 304.958ZM639.036 295.884H569.363V297.884H639.036V295.884ZM568.363 296.884V589H570.363V296.884H568.363ZM569.363 588H529.732V590H569.363V588ZM795.402 589V590H796.108L796.344 589.335L795.402 589ZM753.853 589L752.915 588.655L752.421 590H753.853V589ZM874.024 261.727V260.727H873.326L873.085 261.383L874.024 261.727ZM914.933 261.727L915.872 261.383L915.631 260.727H914.933V261.727ZM1035.1 589V590H1036.54L1036.04 588.655L1035.1 589ZM993.555 589L992.613 589.335L992.849 590H993.555V589ZM895.757 313.503L896.699 313.168L896.463 312.503H895.757V313.503ZM893.2 313.503V312.503H892.494L892.258 313.168L893.2 313.503ZM810.743 461.159V460.159H809.743V461.159H810.743ZM978.214 461.159H979.214V460.159H978.214V461.159ZM978.214 496.315V497.315H979.214V496.315H978.214ZM810.743 496.315H809.743V497.315H810.743V496.315ZM795.402 588H753.853V590H795.402V588ZM754.792 589.345L874.963 262.072L873.085 261.383L752.915 588.655L754.792 589.345ZM874.024 262.727H914.933V260.727H874.024V262.727ZM913.994 262.072L1034.16 589.345L1036.04 588.655L915.872 261.383L913.994 262.072ZM1035.1 588H993.555V590H1035.1V588ZM994.497 588.665L896.699 313.168L894.814 313.837L992.613 589.335L994.497 588.665ZM895.757 312.503H893.2V314.503H895.757V312.503ZM892.258 313.168L794.459 588.665L796.344 589.335L894.142 313.837L892.258 313.168ZM810.743 462.159H978.214V460.159H810.743V462.159ZM977.214 461.159V496.315H979.214V461.159H977.214ZM978.214 495.315H810.743V497.315H978.214V495.315ZM811.743 496.315V461.159H809.743V496.315H811.743ZM1130.82 261.727L1131.82 261.741L1131.84 260.727H1130.82V261.727ZM1127.63 496.955V497.955H1128.61L1128.63 496.968L1127.63 496.955ZM1090.55 496.955L1089.55 496.968L1089.57 497.955H1090.55V496.955ZM1087.36 261.727V260.727H1086.34L1086.36 261.741L1087.36 261.727ZM1088.8 583.087L1089.5 582.38L1088.8 583.087ZM1129.39 542.498L1130.09 541.791L1129.39 542.498ZM1133.86 577.175L1133.01 576.654L1133 576.662L1133 576.67L1133.86 577.175ZM1123.47 587.722L1123.99 588.579L1123.99 588.575L1123.47 587.722ZM1129.82 261.714L1126.63 496.941L1128.63 496.968L1131.82 261.741L1129.82 261.714ZM1127.63 495.955H1090.55V497.955H1127.63V495.955ZM1091.55 496.941L1088.36 261.714L1086.36 261.741L1089.55 496.968L1091.55 496.941ZM1087.36 262.727H1130.82V260.727H1087.36V262.727ZM1109.09 590.557C1101.48 590.557 1094.97 587.842 1089.5 582.38L1088.09 583.794C1093.92 589.626 1100.94 592.557 1109.09 592.557V590.557ZM1089.5 582.38C1084.04 576.919 1081.33 570.407 1081.33 562.793H1079.33C1079.33 570.945 1082.26 577.963 1088.09 583.794L1089.5 582.38ZM1081.33 562.793C1081.33 555.178 1084.04 548.666 1089.5 543.205L1088.09 541.791C1082.26 547.622 1079.33 554.64 1079.33 562.793H1081.33ZM1089.5 543.205C1094.97 537.743 1101.48 535.028 1109.09 535.028V533.028C1100.94 533.028 1093.92 535.96 1088.09 541.791L1089.5 543.205ZM1109.09 535.028C1116.71 535.028 1123.22 537.743 1128.68 543.205L1130.09 541.791C1124.26 535.96 1117.24 533.028 1109.09 533.028V535.028ZM1128.68 543.205C1134.14 548.666 1136.86 555.178 1136.86 562.793H1138.86C1138.86 554.64 1135.92 547.622 1130.09 541.791L1128.68 543.205ZM1136.86 562.793C1136.86 567.833 1135.57 572.446 1133.01 576.654L1134.71 577.695C1137.48 573.167 1138.86 568.193 1138.86 562.793H1136.86ZM1133 576.67C1130.53 580.893 1127.18 584.29 1122.95 586.868L1123.99 588.575C1128.5 585.827 1132.08 582.192 1134.72 577.68L1133 576.67ZM1122.96 586.864C1118.86 589.321 1114.25 590.557 1109.09 590.557V592.557C1114.59 592.557 1119.56 591.236 1123.99 588.579L1122.96 586.864ZM241.35 879.75L242.182 880.305L241.35 879.75ZM257.55 867.15L257.179 866.221L257.172 866.224L257.165 866.227L257.55 867.15ZM321.9 867.6L321.615 868.559L321.627 868.562L321.639 868.565L321.9 867.6ZM354.3 882.9L353.734 883.725L355.3 884.798V882.9H354.3ZM354.3 861.75H355.3V861.407L355.089 861.136L354.3 861.75ZM342.15 851.4L341.55 852.2L341.563 852.21L341.577 852.219L342.15 851.4ZM317.85 839.7L317.508 840.64L317.525 840.646L317.542 840.651L317.85 839.7ZM220.65 852.75L221.298 853.512L221.299 853.51L220.65 852.75ZM209.4 936.9L208.568 937.455L209.4 936.9ZM235.5 959.85L235.053 960.744L235.068 960.752L235.083 960.759L235.5 959.85ZM305.25 961.2L304.912 960.259L304.904 960.262L305.25 961.2ZM334.5 941.85L333.768 941.169L333.762 941.175L333.755 941.182L334.5 941.85ZM346.65 909H347.65V908.869L347.616 908.742L346.65 909ZM339.45 882L340.416 881.742L338.45 882H339.45ZM331.35 910.8L330.509 910.259L330.504 910.267L331.35 910.8ZM310.2 929.7L309.753 928.805L309.741 928.812L310.2 929.7ZM257.1 932.4L256.686 933.31L256.711 933.321L256.736 933.331L257.1 932.4ZM241.35 919.35L240.505 919.884L240.514 919.9L240.525 919.915L241.35 919.35ZM230.55 803.7L229.716 804.251L230.292 805.124L231.138 804.509L230.55 803.7ZM244.05 795.15L243.549 794.285H243.549L244.05 795.15ZM264.75 786.6L264.475 785.638L264.466 785.641L264.75 786.6ZM310.65 784.8L310.856 783.821H310.856L310.65 784.8ZM325.5 790.65L324.959 791.491L324.972 791.5L324.986 791.508L325.5 790.65ZM335.85 801.9L334.956 802.347L334.961 802.359L334.968 802.371L335.85 801.9ZM339.45 963H338.45V964H339.45V963ZM375.45 963V964H376.45V963H375.45ZM365.1 780.3L364.285 780.879L364.291 780.887L364.297 780.896L365.1 780.3ZM336.75 759.15L336.359 760.07L336.373 760.076L336.386 760.082L336.75 759.15ZM244.95 760.05L244.568 759.126L244.561 759.129L244.95 760.05ZM213 777.15L212.41 776.343L211.64 776.906L212.166 777.701L213 777.15ZM236.95 899.1C236.95 891.766 238.708 885.516 242.182 880.305L240.518 879.195C236.792 884.784 234.95 891.434 234.95 899.1H236.95ZM242.182 880.305C245.652 875.1 250.88 871.013 257.935 868.073L257.165 866.227C249.82 869.287 244.248 873.6 240.518 879.195L242.182 880.305ZM257.921 868.078C265.263 865.142 274.725 863.65 286.35 863.65V861.65C274.575 861.65 264.837 863.158 257.179 866.221L257.921 868.078ZM286.35 863.65C298.862 863.65 310.615 865.288 321.615 868.559L322.185 866.641C310.985 863.312 299.038 861.65 286.35 861.65V863.65ZM321.639 868.565C332.619 871.533 343.317 876.582 353.734 883.725L354.866 882.075C344.283 874.818 333.381 869.667 322.161 866.635L321.639 868.565ZM355.3 882.9V861.75H353.3V882.9H355.3ZM355.089 861.136C352.891 858.31 348.734 854.788 342.723 850.581L341.577 852.219C347.566 856.412 351.509 859.79 353.511 862.364L355.089 861.136ZM342.75 850.6C336.633 846.012 328.422 842.069 318.158 838.749L317.542 840.651C327.678 843.931 335.667 847.788 341.55 852.2L342.75 850.6ZM318.192 838.76C308.146 835.107 295.571 833.3 280.5 833.3V835.3C295.429 835.3 307.754 837.093 317.508 840.64L318.192 838.76ZM280.5 833.3C254.845 833.3 234.636 839.488 220.001 851.99L221.299 853.51C235.464 841.412 255.155 835.3 280.5 835.3V833.3ZM220.002 851.988C205.658 864.196 198.5 880.535 198.5 900.9H200.5C200.5 881.065 207.442 865.304 221.298 853.512L220.002 851.988ZM198.5 900.9C198.5 915.16 201.839 927.362 208.568 937.455L210.232 936.345C203.761 926.638 200.5 914.84 200.5 900.9H198.5ZM208.568 937.455C215.266 947.502 224.1 955.268 235.053 960.744L235.947 958.956C225.3 953.632 216.734 946.098 210.232 936.345L208.568 937.455ZM235.083 960.759C246.318 965.921 258.311 968.5 271.05 968.5V966.5C258.589 966.5 246.882 963.979 235.918 958.941L235.083 960.759ZM271.05 968.5C282.576 968.5 294.092 966.376 305.596 962.138L304.904 960.262C293.608 964.424 282.324 966.5 271.05 966.5V968.5ZM305.588 962.141C317.434 957.889 327.327 951.349 335.245 942.518L333.755 941.182C326.073 949.751 316.466 956.111 304.912 960.259L305.588 962.141ZM335.232 942.531C343.524 933.625 347.65 922.423 347.65 909H345.65C345.65 921.977 341.676 932.675 333.768 941.169L335.232 942.531ZM347.616 908.742L340.416 881.742L338.484 882.258L345.684 909.258L347.616 908.742ZM338.45 882C338.45 892.625 335.797 902.034 330.509 910.259L332.191 911.341C337.703 902.766 340.45 892.975 340.45 882H338.45ZM330.504 910.267C325.506 918.204 318.598 924.383 309.753 928.806L310.647 930.594C319.802 926.017 326.994 919.596 332.196 911.333L330.504 910.267ZM309.741 928.812C301.201 933.229 291.462 935.45 280.5 935.45V937.45C291.738 937.45 301.799 935.171 310.659 930.588L309.741 928.812ZM280.5 935.45C271.903 935.45 264.23 934.116 257.464 931.469L256.736 933.331C263.77 936.084 271.697 937.45 280.5 937.45V935.45ZM257.514 931.49C251.071 928.561 245.967 924.327 242.175 918.785L240.525 919.915C244.533 925.773 249.929 930.239 256.686 933.31L257.514 931.49ZM242.195 918.816C238.711 913.3 236.95 906.741 236.95 899.1H234.95C234.95 907.059 236.789 914 240.505 919.884L242.195 918.816ZM231.138 804.509C234.398 802.138 238.865 799.307 244.551 796.015L243.549 794.285C237.835 797.593 233.302 800.462 229.962 802.891L231.138 804.509ZM244.551 796.015C250.167 792.764 256.99 789.942 265.034 787.559L264.466 785.641C256.31 788.058 249.333 790.936 243.549 794.285L244.551 796.015ZM265.025 787.562C273.322 785.191 282.528 784 292.65 784V782C282.372 782 272.978 783.209 264.475 785.638L265.025 787.562ZM292.65 784C298.886 784 304.817 784.594 310.444 785.779L310.856 783.821C305.083 782.606 299.014 782 292.65 782V784ZM310.444 785.779C316.044 786.958 320.877 788.867 324.959 791.491L326.041 789.809C321.723 787.033 316.656 785.042 310.856 783.821L310.444 785.779ZM324.986 791.508C329.319 794.107 332.639 797.713 334.956 802.347L336.744 801.453C334.261 796.487 330.681 792.593 326.014 789.792L324.986 791.508ZM334.968 802.371C337.265 806.678 338.45 812.351 338.45 819.45H340.45C340.45 812.149 339.235 806.122 336.732 801.429L334.968 802.371ZM338.45 819.45V963H340.45V819.45H338.45ZM339.45 964H375.45V962H339.45V964ZM376.45 963V814.5H374.45V963H376.45ZM376.45 814.5C376.45 800.822 372.951 789.204 365.903 779.704L364.297 780.896C371.049 789.996 374.45 801.178 374.45 814.5H376.45ZM365.916 779.721C359.186 770.238 349.566 763.078 337.114 758.218L336.386 760.082C348.534 764.822 357.814 771.762 364.285 780.879L365.916 779.721ZM337.141 758.23C324.991 753.066 310.753 750.5 294.45 750.5V752.5C310.547 752.5 324.509 755.034 336.359 760.07L337.141 758.23ZM294.45 750.5C275.155 750.5 258.519 753.364 244.568 759.126L245.332 760.974C258.981 755.336 275.345 752.5 294.45 752.5V750.5ZM244.561 759.129C231.022 764.845 220.296 770.58 212.41 776.343L213.59 777.957C221.304 772.32 231.878 766.655 245.339 760.971L244.561 759.129ZM212.166 777.701L229.716 804.251L231.384 803.149L213.834 776.599L212.166 777.701ZM420.65 756V755H419.65V756H420.65ZM420.65 789.75H419.65V790.75H420.65V789.75ZM524.15 789.75V790.75H525.15V789.75H524.15ZM524.15 756H525.15V755H524.15V756ZM520.55 655.2L519.688 655.707L520.497 657.082L521.382 655.755L520.55 655.2ZM540.35 625.5L541.182 626.055L541.561 625.486L541.17 624.927L540.35 625.5ZM531.35 616.95L530.75 617.75L530.766 617.761L530.781 617.772L531.35 616.95ZM518.3 610.2L517.968 611.143L518.3 610.2ZM468.35 615.6L468.856 616.463L468.865 616.457L468.35 615.6ZM448.1 639L449.01 639.416L448.1 639ZM440.9 963H439.9V964H440.9V963ZM476.9 963V964H477.9V963H476.9ZM486.8 647.55L487.425 648.331L487.434 648.324L486.8 647.55ZM509.75 645.75L509.391 646.683L509.433 646.699L509.476 646.712L509.75 645.75ZM419.65 756V789.75H421.65V756H419.65ZM420.65 790.75H524.15V788.75H420.65V790.75ZM525.15 789.75V756H523.15V789.75H525.15ZM524.15 755H420.65V757H524.15V755ZM521.382 655.755L541.182 626.055L539.518 624.945L519.718 654.645L521.382 655.755ZM541.17 624.927C538.985 621.806 535.89 618.876 531.92 616.128L530.781 617.772C534.611 620.424 537.516 623.194 539.531 626.073L541.17 624.927ZM531.95 616.15C528.255 613.378 523.81 611.084 518.633 609.257L517.968 611.143C522.99 612.916 527.246 615.122 530.75 617.75L531.95 616.15ZM518.633 609.257C513.406 607.412 507.44 606.5 500.75 606.5V608.5C507.261 608.5 512.995 609.388 517.968 611.143L518.633 609.257ZM500.75 606.5C488.006 606.5 477.02 609.232 467.836 614.742L468.865 616.457C477.681 611.168 488.295 608.5 500.75 608.5V606.5ZM467.845 614.737C458.943 619.956 452.064 627.925 447.191 638.584L449.01 639.416C453.737 629.075 460.358 621.444 468.856 616.463L467.845 614.737ZM447.191 638.584C442.311 649.258 439.9 662.914 439.9 679.5H441.9C441.9 663.086 444.289 649.742 449.01 639.416L447.191 638.584ZM439.9 679.5V963H441.9V679.5H439.9ZM440.9 964H476.9V962H440.9V964ZM477.9 963V684H475.9V963H477.9ZM477.9 684C477.9 674.148 478.798 666.306 480.558 660.437L478.643 659.863C476.803 665.994 475.9 674.052 475.9 684H477.9ZM480.558 660.437C482.333 654.52 484.655 650.547 487.425 648.331L486.176 646.769C482.946 649.353 480.467 653.78 478.643 659.863L480.558 660.437ZM487.434 648.324C490.545 645.779 494.217 644.5 498.5 644.5V642.5C493.783 642.5 489.656 643.921 486.167 646.776L487.434 648.324ZM498.5 644.5C501.96 644.5 505.588 645.22 509.391 646.683L510.109 644.817C506.113 643.28 502.241 642.5 498.5 642.5V644.5ZM509.476 646.712C513.352 647.819 516.772 650.748 519.688 655.707L521.412 654.693C518.329 649.452 514.549 646.081 510.025 644.788L509.476 646.712ZM533.66 756V755H532.66V756H533.66ZM533.66 789.75H532.66V790.75H533.66V789.75ZM637.16 789.75V790.75H638.16V789.75H637.16ZM637.16 756H638.16V755H637.16V756ZM567.41 684V683H566.41V684H567.41ZM567.41 963H566.41V964H567.41V963ZM603.41 963V964H604.41V963H603.41ZM603.41 684H604.41V683H603.41V684ZM532.66 756V789.75H534.66V756H532.66ZM533.66 790.75H637.16V788.75H533.66V790.75ZM638.16 789.75V756H636.16V789.75H638.16ZM637.16 755H533.66V757H637.16V755ZM566.41 684V963H568.41V684H566.41ZM567.41 964H603.41V962H567.41V964ZM604.41 963V684H602.41V963H604.41ZM603.41 683H567.41V685H603.41V683ZM810.966 954.45L811.439 955.331L811.444 955.328L810.966 954.45ZM851.916 914.85L852.765 915.377L853.289 914.534L852.449 914.004L851.916 914.85ZM822.666 896.4L823.199 895.554L822.331 895.007L821.806 895.888L822.666 896.4ZM795.216 924.75L795.701 925.624L795.71 925.619L795.719 925.614L795.216 924.75ZM721.866 924.75L722.384 923.895L721.866 924.75ZM699.366 898.65L698.453 899.058L699.366 898.65ZM691.716 857.25L690.716 857.231L690.716 857.241V857.25H691.716ZM699.816 817.2L698.916 816.763L698.911 816.773L699.816 817.2ZM722.316 792L722.826 792.86L722.834 792.855L722.316 792ZM788.466 790.65L788.971 789.787L788.466 790.65ZM808.716 811.8L807.833 812.271L807.839 812.282L807.846 812.293L808.716 811.8ZM815.016 851.85L815.973 852.137L815.977 852.125L815.98 852.113L815.016 851.85ZM812.316 858.6L811.458 858.086L813.137 859.171L812.316 858.6ZM826.716 837.9L827.537 838.471L828.629 836.9H826.716V837.9ZM678.216 837.9V836.9H677.216V837.9H678.216ZM678.216 868.5H677.216V869.5H678.216V868.5ZM855.066 868.5V869.5H856.066V868.5H855.066ZM855.066 864.45L854.073 864.326L854.066 864.388V864.45H855.066ZM810.066 764.55L809.549 765.406L809.559 765.412L809.57 765.418L810.066 764.55ZM703.866 765L703.366 764.134L703.359 764.138L703.866 765ZM667.866 802.8L666.985 802.327L666.981 802.333L666.978 802.34L667.866 802.8ZM667.416 915.75L666.521 916.197L666.524 916.204L666.528 916.21L667.416 915.75ZM702.066 954L701.531 954.845L701.541 954.851L701.551 954.857L702.066 954ZM753.366 968.5C775.697 968.5 795.066 964.124 811.439 955.331L810.492 953.569C794.465 962.176 775.435 966.5 753.366 966.5V968.5ZM811.444 955.328C828.11 946.238 841.882 932.911 852.765 915.377L851.066 914.323C840.349 931.589 826.822 944.662 810.487 953.572L811.444 955.328ZM852.449 914.004L823.199 895.554L822.132 897.246L851.382 915.696L852.449 914.004ZM821.806 895.888C814.378 908.368 805.342 917.685 794.712 923.886L795.719 925.614C806.689 919.215 815.953 909.632 823.525 896.911L821.806 895.888ZM794.73 923.876C784.098 929.782 771.82 932.75 757.866 932.75V934.75C772.111 934.75 784.733 931.718 795.701 925.624L794.73 923.876ZM757.866 932.75C743.909 932.75 732.097 929.781 722.384 923.895L721.347 925.605C731.435 931.719 743.623 934.75 757.866 934.75V932.75ZM722.384 923.895C712.672 918.009 705.302 909.471 700.278 898.242L698.453 899.058C703.629 910.629 711.26 919.491 721.347 925.605L722.384 923.895ZM700.278 898.242C695.25 887.002 692.716 873.349 692.716 857.25H690.716C690.716 873.551 693.281 887.498 698.453 899.058L700.278 898.242ZM692.715 857.269C693.014 841.466 695.697 828.264 700.72 817.627L698.911 816.773C693.735 827.736 691.018 841.234 690.716 857.231L692.715 857.269ZM700.715 817.637C706.039 806.694 713.412 798.45 722.826 792.86L721.805 791.14C712.019 796.95 704.393 805.506 698.916 816.763L700.715 817.637ZM722.834 792.855C732.55 786.967 744.213 784 757.866 784V782C743.918 782 731.881 785.033 721.797 791.145L722.834 792.855ZM757.866 784C769.417 784 779.436 786.516 787.96 791.513L788.971 789.787C780.095 784.584 769.715 782 757.866 782V784ZM787.96 791.513C796.499 796.518 803.119 803.432 807.833 812.271L809.598 811.329C804.712 802.168 797.833 794.982 788.971 789.787L787.96 791.513ZM807.846 812.293C812.846 821.117 815.366 831.59 815.366 843.75H817.366C817.366 831.31 814.786 820.483 809.586 811.307L807.846 812.293ZM815.366 843.75C815.366 845.723 814.94 848.326 814.051 851.587L815.98 852.113C816.891 848.774 817.366 845.977 817.366 843.75H815.366ZM814.058 851.563C813.166 854.535 812.294 856.692 811.458 858.086L813.173 859.115C814.137 857.508 815.065 855.165 815.973 852.137L814.058 851.563ZM813.137 859.171L827.537 838.471L825.895 837.329L811.495 858.029L813.137 859.171ZM826.716 836.9H678.216V838.9H826.716V836.9ZM677.216 837.9V868.5H679.216V837.9H677.216ZM678.216 869.5H855.066V867.5H678.216V869.5ZM856.066 868.5C856.066 868.499 856.066 868.498 856.066 868.496C856.066 868.495 856.066 868.494 856.066 868.493C856.066 868.492 856.066 868.491 856.066 868.489C856.066 868.488 856.066 868.487 856.066 868.486C856.066 868.485 856.066 868.483 856.066 868.482C856.066 868.481 856.066 868.48 856.066 868.479C856.066 868.477 856.066 868.476 856.066 868.475C856.066 868.474 856.066 868.473 856.066 868.471C856.066 868.47 856.066 868.469 856.066 868.468C856.066 868.466 856.066 868.465 856.066 868.464C856.066 868.463 856.066 868.462 856.066 868.46C856.066 868.459 856.066 868.458 856.066 868.457C856.066 868.455 856.066 868.454 856.066 868.453C856.066 868.452 856.066 868.45 856.066 868.449C856.066 868.448 856.066 868.447 856.066 868.445C856.066 868.444 856.066 868.443 856.066 868.442C856.066 868.44 856.066 868.439 856.066 868.438C856.066 868.436 856.066 868.435 856.066 868.434C856.066 868.433 856.066 868.431 856.066 868.43C856.066 868.429 856.066 868.428 856.066 868.426C856.066 868.425 856.066 868.424 856.066 868.422C856.066 868.421 856.066 868.42 856.066 868.419C856.066 868.417 856.066 868.416 856.066 868.415C856.066 868.413 856.066 868.412 856.066 868.411C856.066 868.409 856.066 868.408 856.066 868.407C856.066 868.405 856.066 868.404 856.066 868.403C856.066 868.401 856.066 868.4 856.066 868.399C856.066 868.397 856.066 868.396 856.066 868.395C856.066 868.393 856.066 868.392 856.066 868.391C856.066 868.389 856.066 868.388 856.066 868.387C856.066 868.385 856.066 868.384 856.066 868.383C856.066 868.381 856.066 868.38 856.066 868.379C856.066 868.377 856.066 868.376 856.066 868.375C856.066 868.373 856.066 868.372 856.066 868.371C856.066 868.369 856.066 868.368 856.066 868.366C856.066 868.365 856.066 868.364 856.066 868.362C856.066 868.361 856.066 868.36 856.066 868.358C856.066 868.357 856.066 868.355 856.066 868.354C856.066 868.353 856.066 868.351 856.066 868.35C856.066 868.348 856.066 868.347 856.066 868.346C856.066 868.344 856.066 868.343 856.066 868.341C856.066 868.34 856.066 868.339 856.066 868.337C856.066 868.336 856.066 868.334 856.066 868.333C856.066 868.332 856.066 868.33 856.066 868.329C856.066 868.327 856.066 868.326 856.066 868.324C856.066 868.323 856.066 868.322 856.066 868.32C856.066 868.319 856.066 868.317 856.066 868.316C856.066 868.314 856.066 868.313 856.066 868.311C856.066 868.31 856.066 868.309 856.066 868.307C856.066 868.306 856.066 868.304 856.066 868.303C856.066 868.301 856.066 868.3 856.066 868.298C856.066 868.297 856.066 868.295 856.066 868.294C856.066 868.292 856.066 868.291 856.066 868.29C856.066 868.288 856.066 868.287 856.066 868.285C856.066 868.284 856.066 868.282 856.066 868.281C856.066 868.279 856.066 868.278 856.066 868.276C856.066 868.275 856.066 868.273 856.066 868.272C856.066 868.27 856.066 868.269 856.066 868.267C856.066 868.266 856.066 868.264 856.066 868.263C856.066 868.261 856.066 868.26 856.066 868.258C856.066 868.257 856.066 868.255 856.066 868.254C856.066 868.252 856.066 868.251 856.066 868.249C856.066 868.247 856.066 868.246 856.066 868.244C856.066 868.243 856.066 868.241 856.066 868.24C856.066 868.238 856.066 868.237 856.066 868.235C856.066 868.234 856.066 868.232 856.066 868.231C856.066 868.229 856.066 868.227 856.066 868.226C856.066 868.224 856.066 868.223 856.066 868.221C856.066 868.22 856.066 868.218 856.066 868.217C856.066 868.215 856.066 868.213 856.066 868.212C856.066 868.21 856.066 868.209 856.066 868.207C856.066 868.206 856.066 868.204 856.066 868.202C856.066 868.201 856.066 868.199 856.066 868.198C856.066 868.196 856.066 868.194 856.066 868.193C856.066 868.191 856.066 868.19 856.066 868.188C856.066 868.186 856.066 868.185 856.066 868.183C856.066 868.182 856.066 868.18 856.066 868.178C856.066 868.177 856.066 868.175 856.066 868.174C856.066 868.172 856.066 868.17 856.066 868.169C856.066 868.167 856.066 868.165 856.066 868.164C856.066 868.162 856.066 868.161 856.066 868.159C856.066 868.157 856.066 868.156 856.066 868.154C856.066 868.152 856.066 868.151 856.066 868.149C856.066 868.147 856.066 868.146 856.066 868.144C856.066 868.142 856.066 868.141 856.066 868.139C856.066 868.138 856.066 868.136 856.066 868.134C856.066 868.133 856.066 868.131 856.066 868.129C856.066 868.128 856.066 868.126 856.066 868.124C856.066 868.122 856.066 868.121 856.066 868.119C856.066 868.117 856.066 868.116 856.066 868.114C856.066 868.112 856.066 868.111 856.066 868.109C856.066 868.107 856.066 868.106 856.066 868.104C856.066 868.102 856.066 868.101 856.066 868.099C856.066 868.097 856.066 868.095 856.066 868.094C856.066 868.092 856.066 868.09 856.066 868.089C856.066 868.087 856.066 868.085 856.066 868.083C856.066 868.082 856.066 868.08 856.066 868.078C856.066 868.076 856.066 868.075 856.066 868.073C856.066 868.071 856.066 868.07 856.066 868.068C856.066 868.066 856.066 868.064 856.066 868.063C856.066 868.061 856.066 868.059 856.066 868.057C856.066 868.056 856.066 868.054 856.066 868.052C856.066 868.05 856.066 868.049 856.066 868.047C856.066 868.045 856.066 868.043 856.066 868.042C856.066 868.04 856.066 868.038 856.066 868.036C856.066 868.034 856.066 868.033 856.066 868.031C856.066 868.029 856.066 868.027 856.066 868.026C856.066 868.024 856.066 868.022 856.066 868.02C856.066 868.018 856.066 868.017 856.066 868.015C856.066 868.013 856.066 868.011 856.066 868.009C856.066 868.008 856.066 868.006 856.066 868.004C856.066 868.002 856.066 868 856.066 867.999C856.066 867.997 856.066 867.995 856.066 867.993C856.066 867.991 856.066 867.99 856.066 867.988C856.066 867.986 856.066 867.984 856.066 867.982C856.066 867.98 856.066 867.979 856.066 867.977C856.066 867.975 856.066 867.973 856.066 867.971C856.066 867.969 856.066 867.967 856.066 867.966C856.066 867.964 856.066 867.962 856.066 867.96C856.066 867.958 856.066 867.956 856.066 867.955C856.066 867.953 856.066 867.951 856.066 867.949C856.066 867.947 856.066 867.945 856.066 867.943C856.066 867.941 856.066 867.94 856.066 867.938C856.066 867.936 856.066 867.934 856.066 867.932C856.066 867.93 856.066 867.928 856.066 867.926C856.066 867.925 856.066 867.923 856.066 867.921C856.066 867.919 856.066 867.917 856.066 867.915C856.066 867.913 856.066 867.911 856.066 867.909C856.066 867.907 856.066 867.906 856.066 867.904C856.066 867.902 856.066 867.9 856.066 867.898C856.066 867.896 856.066 867.894 856.066 867.892C856.066 867.89 856.066 867.888 856.066 867.886C856.066 867.884 856.066 867.883 856.066 867.881C856.066 867.879 856.066 867.877 856.066 867.875C856.066 867.873 856.066 867.871 856.066 867.869C856.066 867.867 856.066 867.865 856.066 867.863C856.066 867.861 856.066 867.859 856.066 867.857C856.066 867.855 856.066 867.853 856.066 867.851C856.066 867.849 856.066 867.847 856.066 867.846C856.066 867.844 856.066 867.842 856.066 867.84C856.066 867.838 856.066 867.836 856.066 867.834C856.066 867.832 856.066 867.83 856.066 867.828C856.066 867.826 856.066 867.824 856.066 867.822C856.066 867.82 856.066 867.818 856.066 867.816C856.066 867.814 856.066 867.812 856.066 867.81C856.066 867.808 856.066 867.806 856.066 867.804C856.066 867.802 856.066 867.8 856.066 867.798C856.066 867.796 856.066 867.794 856.066 867.792C856.066 867.79 856.066 867.788 856.066 867.786C856.066 867.784 856.066 867.782 856.066 867.78C856.066 867.778 856.066 867.775 856.066 867.773C856.066 867.771 856.066 867.769 856.066 867.767C856.066 867.765 856.066 867.763 856.066 867.761C856.066 867.759 856.066 867.757 856.066 867.755C856.066 867.753 856.066 867.751 856.066 867.749C856.066 867.747 856.066 867.745 856.066 867.743C856.066 867.741 856.066 867.739 856.066 867.736C856.066 867.734 856.066 867.732 856.066 867.73C856.066 867.728 856.066 867.726 856.066 867.724C856.066 867.722 856.066 867.72 856.066 867.718C856.066 867.716 856.066 867.714 856.066 867.711C856.066 867.709 856.066 867.707 856.066 867.705C856.066 867.703 856.066 867.701 856.066 867.699C856.066 867.697 856.066 867.695 856.066 867.693C856.066 867.69 856.066 867.688 856.066 867.686C856.066 867.684 856.066 867.682 856.066 867.68C856.066 867.678 856.066 867.676 856.066 867.674C856.066 867.671 856.066 867.669 856.066 867.667C856.066 867.665 856.066 867.663 856.066 867.661C856.066 867.659 856.066 867.656 856.066 867.654C856.066 867.652 856.066 867.65 856.066 867.648C856.066 867.646 856.066 867.644 856.066 867.641C856.066 867.639 856.066 867.637 856.066 867.635C856.066 867.633 856.066 867.631 856.066 867.628C856.066 867.626 856.066 867.624 856.066 867.622C856.066 867.62 856.066 867.618 856.066 867.615C856.066 867.613 856.066 867.611 856.066 867.609C856.066 867.607 856.066 867.604 856.066 867.602C856.066 867.6 856.066 867.598 856.066 867.596C856.066 867.594 856.066 867.591 856.066 867.589C856.066 867.587 856.066 867.585 856.066 867.582C856.066 867.58 856.066 867.578 856.066 867.576C856.066 867.574 856.066 867.571 856.066 867.569C856.066 867.567 856.066 867.565 856.066 867.563C856.066 867.56 856.066 867.558 856.066 867.556C856.066 867.554 856.066 867.551 856.066 867.549C856.066 867.547 856.066 867.545 856.066 867.542C856.066 867.54 856.066 867.538 856.066 867.536C856.066 867.533 856.066 867.531 856.066 867.529C856.066 867.527 856.066 867.524 856.066 867.522C856.066 867.52 856.066 867.518 856.066 867.515C856.066 867.513 856.066 867.511 856.066 867.509C856.066 867.506 856.066 867.504 856.066 867.502C856.066 867.5 856.066 867.497 856.066 867.495C856.066 867.493 856.066 867.49 856.066 867.488C856.066 867.486 856.066 867.484 856.066 867.481C856.066 867.479 856.066 867.477 856.066 867.474C856.066 867.472 856.066 867.47 856.066 867.467C856.066 867.465 856.066 867.463 856.066 867.461C856.066 867.458 856.066 867.456 856.066 867.454C856.066 867.451 856.066 867.449 856.066 867.447C856.066 867.444 856.066 867.442 856.066 867.44C856.066 867.437 856.066 867.435 856.066 867.433C856.066 867.43 856.066 867.428 856.066 867.426C856.066 867.423 856.066 867.421 856.066 867.419C856.066 867.416 856.066 867.414 856.066 867.412C856.066 867.409 856.066 867.407 856.066 867.404C856.066 867.402 856.066 867.4 856.066 867.397C856.066 867.395 856.066 867.393 856.066 867.39C856.066 867.388 856.066 867.386 856.066 867.383C856.066 867.381 856.066 867.378 856.066 867.376C856.066 867.374 856.066 867.371 856.066 867.369C856.066 867.367 856.066 867.364 856.066 867.362C856.066 867.359 856.066 867.357 856.066 867.355C856.066 867.352 856.066 867.35 856.066 867.347C856.066 867.345 856.066 867.343 856.066 867.34C856.066 867.338 856.066 867.335 856.066 867.333C856.066 867.331 856.066 867.328 856.066 867.326C856.066 867.323 856.066 867.321 856.066 867.318C856.066 867.316 856.066 867.314 856.066 867.311C856.066 867.309 856.066 867.306 856.066 867.304C856.066 867.301 856.066 867.299 856.066 867.297C856.066 867.294 856.066 867.292 856.066 867.289C856.066 867.287 856.066 867.284 856.066 867.282C856.066 867.279 856.066 867.277 856.066 867.274C856.066 867.272 856.066 867.27 856.066 867.267C856.066 867.265 856.066 867.262 856.066 867.26C856.066 867.257 856.066 867.255 856.066 867.252C856.066 867.25 856.066 867.247 856.066 867.245C856.066 867.242 856.066 867.24 856.066 867.237C856.066 867.235 856.066 867.232 856.066 867.23C856.066 867.227 856.066 867.225 856.066 867.222C856.066 867.22 856.066 867.217 856.066 867.215C856.066 867.212 856.066 867.21 856.066 867.207C856.066 867.205 856.066 867.202 856.066 867.2C856.066 867.197 856.066 867.195 856.066 867.192C856.066 867.19 856.066 867.187 856.066 867.185C856.066 867.182 856.066 867.18 856.066 867.177C856.066 867.175 856.066 867.172 856.066 867.169C856.066 867.167 856.066 867.164 856.066 867.162C856.066 867.159 856.066 867.157 856.066 867.154C856.066 867.152 856.066 867.149 856.066 867.147C856.066 867.144 856.066 867.141 856.066 867.139C856.066 867.136 856.066 867.134 856.066 867.131C856.066 867.129 856.066 867.126 856.066 867.123C856.066 867.121 856.066 867.118 856.066 867.116C856.066 867.113 856.066 867.111 856.066 867.108C856.066 867.105 856.066 867.103 856.066 867.1C856.066 867.098 856.066 867.095 856.066 867.092C856.066 867.09 856.066 867.087 856.066 867.085C856.066 867.082 856.066 867.079 856.066 867.077C856.066 867.074 856.066 867.072 856.066 867.069C856.066 867.066 856.066 867.064 856.066 867.061C856.066 867.059 856.066 867.056 856.066 867.053C856.066 867.051 856.066 867.048 856.066 867.045C856.066 867.043 856.066 867.04 856.066 867.037C856.066 867.035 856.066 867.032 856.066 867.03C856.066 867.027 856.066 867.024 856.066 867.022C856.066 867.019 856.066 867.016 856.066 867.014C856.066 867.011 856.066 867.008 856.066 867.006C856.066 867.003 856.066 867 856.066 866.998C856.066 866.995 856.066 866.992 856.066 866.99C856.066 866.987 856.066 866.984 856.066 866.982C856.066 866.979 856.066 866.976 856.066 866.974C856.066 866.971 856.066 866.968 856.066 866.966C856.066 866.963 856.066 866.96 856.066 866.958C856.066 866.955 856.066 866.952 856.066 866.949C856.066 866.947 856.066 866.944 856.066 866.941C856.066 866.939 856.066 866.936 856.066 866.933C856.066 866.93 856.066 866.928 856.066 866.925C856.066 866.922 856.066 866.92 856.066 866.917C856.066 866.914 856.066 866.911 856.066 866.909C856.066 866.906 856.066 866.903 856.066 866.901C856.066 866.898 856.066 866.895 856.066 866.892C856.066 866.89 856.066 866.887 856.066 866.884C856.066 866.881 856.066 866.879 856.066 866.876C856.066 866.873 856.066 866.87 856.066 866.868C856.066 866.865 856.066 866.862 856.066 866.859C856.066 866.857 856.066 866.854 856.066 866.851C856.066 866.848 856.066 866.845 856.066 866.843C856.066 866.84 856.066 866.837 856.066 866.834C856.066 866.832 856.066 866.829 856.066 866.826C856.066 866.823 856.066 866.82 856.066 866.818C856.066 866.815 856.066 866.812 856.066 866.809C856.066 866.806 856.066 866.804 856.066 866.801C856.066 866.798 856.066 866.795 856.066 866.792C856.066 866.79 856.066 866.787 856.066 866.784C856.066 866.781 856.066 866.778 856.066 866.776C856.066 866.773 856.066 866.77 856.066 866.767C856.066 866.764 856.066 866.761 856.066 866.759C856.066 866.756 856.066 866.753 856.066 866.75C856.066 866.747 856.066 866.744 856.066 866.742C856.066 866.739 856.066 866.736 856.066 866.733C856.066 866.73 856.066 866.727 856.066 866.724C856.066 866.722 856.066 866.719 856.066 866.716C856.066 866.713 856.066 866.71 856.066 866.707C856.066 866.704 856.066 866.702 856.066 866.699C856.066 866.696 856.066 866.693 856.066 866.69C856.066 866.687 856.066 866.684 856.066 866.681C856.066 866.679 856.066 866.676 856.066 866.673C856.066 866.67 856.066 866.667 856.066 866.664C856.066 866.661 856.066 866.658 856.066 866.655C856.066 866.653 856.066 866.65 856.066 866.647C856.066 866.644 856.066 866.641 856.066 866.638C856.066 866.635 856.066 866.632 856.066 866.629C856.066 866.626 856.066 866.623 856.066 866.621C856.066 866.618 856.066 866.615 856.066 866.612C856.066 866.609 856.066 866.606 856.066 866.603C856.066 866.6 856.066 866.597 856.066 866.594C856.066 866.591 856.066 866.588 856.066 866.585C856.066 866.582 856.066 866.579 856.066 866.576C856.066 866.574 856.066 866.571 856.066 866.568C856.066 866.565 856.066 866.562 856.066 866.559C856.066 866.556 856.066 866.553 856.066 866.55C856.066 866.547 856.066 866.544 856.066 866.541C856.066 866.538 856.066 866.535 856.066 866.532C856.066 866.529 856.066 866.526 856.066 866.523C856.066 866.52 856.066 866.517 856.066 866.514C856.066 866.511 856.066 866.508 856.066 866.505C856.066 866.502 856.066 866.499 856.066 866.496C856.066 866.493 856.066 866.49 856.066 866.487C856.066 866.484 856.066 866.481 856.066 866.478C856.066 866.475 856.066 866.472 856.066 866.469C856.066 866.466 856.066 866.463 856.066 866.46C856.066 866.457 856.066 866.454 856.066 866.451C856.066 866.448 856.066 866.445 856.066 866.442C856.066 866.439 856.066 866.436 856.066 866.433C856.066 866.43 856.066 866.427 856.066 866.423C856.066 866.42 856.066 866.417 856.066 866.414C856.066 866.411 856.066 866.408 856.066 866.405C856.066 866.402 856.066 866.399 856.066 866.396C856.066 866.393 856.066 866.39 856.066 866.387C856.066 866.384 856.066 866.381 856.066 866.378C856.066 866.374 856.066 866.371 856.066 866.368C856.066 866.365 856.066 866.362 856.066 866.359C856.066 866.356 856.066 866.353 856.066 866.35C856.066 866.347 856.066 866.344 856.066 866.34C856.066 866.337 856.066 866.334 856.066 866.331C856.066 866.328 856.066 866.325 856.066 866.322C856.066 866.319 856.066 866.316 856.066 866.312C856.066 866.309 856.066 866.306 856.066 866.303C856.066 866.3 856.066 866.297 856.066 866.294C856.066 866.291 856.066 866.287 856.066 866.284C856.066 866.281 856.066 866.278 856.066 866.275C856.066 866.272 856.066 866.269 856.066 866.266C856.066 866.262 856.066 866.259 856.066 866.256C856.066 866.253 856.066 866.25 856.066 866.247C856.066 866.243 856.066 866.24 856.066 866.237C856.066 866.234 856.066 866.231 856.066 866.228C856.066 866.224 856.066 866.221 856.066 866.218C856.066 866.215 856.066 866.212 856.066 866.209C856.066 866.205 856.066 866.202 856.066 866.199C856.066 866.196 856.066 866.193 856.066 866.189C856.066 866.186 856.066 866.183 856.066 866.18C856.066 866.177 856.066 866.173 856.066 866.17C856.066 866.167 856.066 866.164 856.066 866.161C856.066 866.157 856.066 866.154 856.066 866.151C856.066 866.148 856.066 866.145 856.066 866.141C856.066 866.138 856.066 866.135 856.066 866.132C856.066 866.128 856.066 866.125 856.066 866.122C856.066 866.119 856.066 866.116 856.066 866.112C856.066 866.109 856.066 866.106 856.066 866.103C856.066 866.099 856.066 866.096 856.066 866.093C856.066 866.09 856.066 866.086 856.066 866.083C856.066 866.08 856.066 866.077 856.066 866.073C856.066 866.07 856.066 866.067 856.066 866.064C856.066 866.06 856.066 866.057 856.066 866.054C856.066 866.05 856.066 866.047 856.066 866.044C856.066 866.041 856.066 866.037 856.066 866.034C856.066 866.031 856.066 866.027 856.066 866.024C856.066 866.021 856.066 866.018 856.066 866.014C856.066 866.011 856.066 866.008 856.066 866.004C856.066 866.001 856.066 865.998 856.066 865.995C856.066 865.991 856.066 865.988 856.066 865.985C856.066 865.981 856.066 865.978 856.066 865.975C856.066 865.971 856.066 865.968 856.066 865.965C856.066 865.961 856.066 865.958 856.066 865.955C856.066 865.951 856.066 865.948 856.066 865.945C856.066 865.941 856.066 865.938 856.066 865.935C856.066 865.931 856.066 865.928 856.066 865.925C856.066 865.921 856.066 865.918 856.066 865.915C856.066 865.911 856.066 865.908 856.066 865.905C856.066 865.901 856.066 865.898 856.066 865.894C856.066 865.891 856.066 865.888 856.066 865.884C856.066 865.881 856.066 865.878 856.066 865.874C856.066 865.871 856.066 865.867 856.066 865.864C856.066 865.861 856.066 865.857 856.066 865.854C856.066 865.851 856.066 865.847 856.066 865.844C856.066 865.84 856.066 865.837 856.066 865.834C856.066 865.83 856.066 865.827 856.066 865.823C856.066 865.82 856.066 865.817 856.066 865.813C856.066 865.81 856.066 865.806 856.066 865.803C856.066 865.8 856.066 865.796 856.066 865.793C856.066 865.789 856.066 865.786 856.066 865.782C856.066 865.779 856.066 865.776 856.066 865.772C856.066 865.769 856.066 865.765 856.066 865.762C856.066 865.758 856.066 865.755 856.066 865.752C856.066 865.748 856.066 865.745 856.066 865.741C856.066 865.738 856.066 865.734 856.066 865.731C856.066 865.727 856.066 865.724 856.066 865.72C856.066 865.717 856.066 865.714 856.066 865.71C856.066 865.707 856.066 865.703 856.066 865.7C856.066 865.696 856.066 865.693 856.066 865.689C856.066 865.686 856.066 865.682 856.066 865.679C856.066 865.675 856.066 865.672 856.066 865.668C856.066 865.665 856.066 865.661 856.066 865.658C856.066 865.654 856.066 865.651 856.066 865.647C856.066 865.644 856.066 865.64 856.066 865.637C856.066 865.633 856.066 865.63 856.066 865.626C856.066 865.623 856.066 865.619 856.066 865.616C856.066 865.612 856.066 865.609 856.066 865.605C856.066 865.602 856.066 865.598 856.066 865.595C856.066 865.591 856.066 865.588 856.066 865.584C856.066 865.581 856.066 865.577 856.066 865.573C856.066 865.57 856.066 865.566 856.066 865.563C856.066 865.559 856.066 865.556 856.066 865.552C856.066 865.549 856.066 865.545 856.066 865.542C856.066 865.538 856.066 865.534 856.066 865.531C856.066 865.527 856.066 865.524 856.066 865.52C856.066 865.517 856.066 865.513 856.066 865.509C856.066 865.506 856.066 865.502 856.066 865.499C856.066 865.495 856.066 865.491 856.066 865.488C856.066 865.484 856.066 865.481 856.066 865.477C856.066 865.474 856.066 865.47 856.066 865.466C856.066 865.463 856.066 865.459 856.066 865.456C856.066 865.452 856.066 865.448 856.066 865.445C856.066 865.441 856.066 865.438 856.066 865.434C856.066 865.43 856.066 865.427 856.066 865.423C856.066 865.419 856.066 865.416 856.066 865.412C856.066 865.409 856.066 865.405 856.066 865.401C856.066 865.398 856.066 865.394 856.066 865.39C856.066 865.387 856.066 865.383 856.066 865.379C856.066 865.376 856.066 865.372 856.066 865.368C856.066 865.365 856.066 865.361 856.066 865.358C856.066 865.354 856.066 865.35 856.066 865.347C856.066 865.343 856.066 865.339 856.066 865.336C856.066 865.332 856.066 865.328 856.066 865.325C856.066 865.321 856.066 865.317 856.066 865.314C856.066 865.31 856.066 865.306 856.066 865.302C856.066 865.299 856.066 865.295 856.066 865.291C856.066 865.288 856.066 865.284 856.066 865.28C856.066 865.277 856.066 865.273 856.066 865.269C856.066 865.266 856.066 865.262 856.066 865.258C856.066 865.254 856.066 865.251 856.066 865.247C856.066 865.243 856.066 865.24 856.066 865.236C856.066 865.232 856.066 865.228 856.066 865.225C856.066 865.221 856.066 865.217 856.066 865.214C856.066 865.21 856.066 865.206 856.066 865.202C856.066 865.199 856.066 865.195 856.066 865.191C856.066 865.187 856.066 865.184 856.066 865.18C856.066 865.176 856.066 865.172 856.066 865.169C856.066 865.165 856.066 865.161 856.066 865.157C856.066 865.154 856.066 865.15 856.066 865.146C856.066 865.142 856.066 865.139 856.066 865.135C856.066 865.131 856.066 865.127 856.066 865.123C856.066 865.12 856.066 865.116 856.066 865.112C856.066 865.108 856.066 865.105 856.066 865.101C856.066 865.097 856.066 865.093 856.066 865.089C856.066 865.086 856.066 865.082 856.066 865.078C856.066 865.074 856.066 865.07 856.066 865.067C856.066 865.063 856.066 865.059 856.066 865.055C856.066 865.051 856.066 865.048 856.066 865.044C856.066 865.04 856.066 865.036 856.066 865.032C856.066 865.029 856.066 865.025 856.066 865.021C856.066 865.017 856.066 865.013 856.066 865.009C856.066 865.005 856.066 865.002 856.066 864.998C856.066 864.994 856.066 864.99 856.066 864.986C856.066 864.982 856.066 864.979 856.066 864.975C856.066 864.971 856.066 864.967 856.066 864.963C856.066 864.959 856.066 864.956 856.066 864.952C856.066 864.948 856.066 864.944 856.066 864.94C856.066 864.936 856.066 864.932 856.066 864.928C856.066 864.925 856.066 864.921 856.066 864.917C856.066 864.913 856.066 864.909 856.066 864.905C856.066 864.901 856.066 864.897 856.066 864.893C856.066 864.89 856.066 864.886 856.066 864.882C856.066 864.878 856.066 864.874 856.066 864.87C856.066 864.866 856.066 864.862 856.066 864.858C856.066 864.855 856.066 864.851 856.066 864.847C856.066 864.843 856.066 864.839 856.066 864.835C856.066 864.831 856.066 864.827 856.066 864.823C856.066 864.819 856.066 864.815 856.066 864.811C856.066 864.807 856.066 864.804 856.066 864.8C856.066 864.796 856.066 864.792 856.066 864.788C856.066 864.784 856.066 864.78 856.066 864.776C856.066 864.772 856.066 864.768 856.066 864.764C856.066 864.76 856.066 864.756 856.066 864.752C856.066 864.748 856.066 864.744 856.066 864.74C856.066 864.736 856.066 864.732 856.066 864.728C856.066 864.724 856.066 864.721 856.066 864.717C856.066 864.713 856.066 864.709 856.066 864.705C856.066 864.701 856.066 864.697 856.066 864.693C856.066 864.689 856.066 864.685 856.066 864.681C856.066 864.677 856.066 864.673 856.066 864.669C856.066 864.665 856.066 864.661 856.066 864.657C856.066 864.653 856.066 864.649 856.066 864.645C856.066 864.641 856.066 864.637 856.066 864.633C856.066 864.629 856.066 864.625 856.066 864.621C856.066 864.617 856.066 864.613 856.066 864.609C856.066 864.604 856.066 864.6 856.066 864.596C856.066 864.592 856.066 864.588 856.066 864.584C856.066 864.58 856.066 864.576 856.066 864.572C856.066 864.568 856.066 864.564 856.066 864.56C856.066 864.556 856.066 864.552 856.066 864.548C856.066 864.544 856.066 864.54 856.066 864.536C856.066 864.532 856.066 864.528 856.066 864.523C856.066 864.519 856.066 864.515 856.066 864.511C856.066 864.507 856.066 864.503 856.066 864.499C856.066 864.495 856.066 864.491 856.066 864.487C856.066 864.483 856.066 864.479 856.066 864.475C856.066 864.47 856.066 864.466 856.066 864.462C856.066 864.458 856.066 864.454 856.066 864.45H854.066C854.066 864.454 854.066 864.458 854.066 864.462C854.066 864.466 854.066 864.47 854.066 864.475C854.066 864.479 854.066 864.483 854.066 864.487C854.066 864.491 854.066 864.495 854.066 864.499C854.066 864.503 854.066 864.507 854.066 864.511C854.066 864.515 854.066 864.519 854.066 864.523C854.066 864.528 854.066 864.532 854.066 864.536C854.066 864.54 854.066 864.544 854.066 864.548C854.066 864.552 854.066 864.556 854.066 864.56C854.066 864.564 854.066 864.568 854.066 864.572C854.066 864.576 854.066 864.58 854.066 864.584C854.066 864.588 854.066 864.592 854.066 864.596C854.066 864.6 854.066 864.604 854.066 864.609C854.066 864.613 854.066 864.617 854.066 864.621C854.066 864.625 854.066 864.629 854.066 864.633C854.066 864.637 854.066 864.641 854.066 864.645C854.066 864.649 854.066 864.653 854.066 864.657C854.066 864.661 854.066 864.665 854.066 864.669C854.066 864.673 854.066 864.677 854.066 864.681C854.066 864.685 854.066 864.689 854.066 864.693C854.066 864.697 854.066 864.701 854.066 864.705C854.066 864.709 854.066 864.713 854.066 864.717C854.066 864.721 854.066 864.724 854.066 864.728C854.066 864.732 854.066 864.736 854.066 864.74C854.066 864.744 854.066 864.748 854.066 864.752C854.066 864.756 854.066 864.76 854.066 864.764C854.066 864.768 854.066 864.772 854.066 864.776C854.066 864.78 854.066 864.784 854.066 864.788C854.066 864.792 854.066 864.796 854.066 864.8C854.066 864.804 854.066 864.807 854.066 864.811C854.066 864.815 854.066 864.819 854.066 864.823C854.066 864.827 854.066 864.831 854.066 864.835C854.066 864.839 854.066 864.843 854.066 864.847C854.066 864.851 854.066 864.855 854.066 864.858C854.066 864.862 854.066 864.866 854.066 864.87C854.066 864.874 854.066 864.878 854.066 864.882C854.066 864.886 854.066 864.89 854.066 864.893C854.066 864.897 854.066 864.901 854.066 864.905C854.066 864.909 854.066 864.913 854.066 864.917C854.066 864.921 854.066 864.925 854.066 864.928C854.066 864.932 854.066 864.936 854.066 864.94C854.066 864.944 854.066 864.948 854.066 864.952C854.066 864.956 854.066 864.959 854.066 864.963C854.066 864.967 854.066 864.971 854.066 864.975C854.066 864.979 854.066 864.982 854.066 864.986C854.066 864.99 854.066 864.994 854.066 864.998C854.066 865.002 854.066 865.005 854.066 865.009C854.066 865.013 854.066 865.017 854.066 865.021C854.066 865.025 854.066 865.029 854.066 865.032C854.066 865.036 854.066 865.04 854.066 865.044C854.066 865.048 854.066 865.051 854.066 865.055C854.066 865.059 854.066 865.063 854.066 865.067C854.066 865.07 854.066 865.074 854.066 865.078C854.066 865.082 854.066 865.086 854.066 865.089C854.066 865.093 854.066 865.097 854.066 865.101C854.066 865.105 854.066 865.108 854.066 865.112C854.066 865.116 854.066 865.12 854.066 865.123C854.066 865.127 854.066 865.131 854.066 865.135C854.066 865.139 854.066 865.142 854.066 865.146C854.066 865.15 854.066 865.154 854.066 865.157C854.066 865.161 854.066 865.165 854.066 865.169C854.066 865.172 854.066 865.176 854.066 865.18C854.066 865.184 854.066 865.187 854.066 865.191C854.066 865.195 854.066 865.199 854.066 865.202C854.066 865.206 854.066 865.21 854.066 865.214C854.066 865.217 854.066 865.221 854.066 865.225C854.066 865.228 854.066 865.232 854.066 865.236C854.066 865.24 854.066 865.243 854.066 865.247C854.066 865.251 854.066 865.254 854.066 865.258C854.066 865.262 854.066 865.266 854.066 865.269C854.066 865.273 854.066 865.277 854.066 865.28C854.066 865.284 854.066 865.288 854.066 865.291C854.066 865.295 854.066 865.299 854.066 865.302C854.066 865.306 854.066 865.31 854.066 865.314C854.066 865.317 854.066 865.321 854.066 865.325C854.066 865.328 854.066 865.332 854.066 865.336C854.066 865.339 854.066 865.343 854.066 865.347C854.066 865.35 854.066 865.354 854.066 865.358C854.066 865.361 854.066 865.365 854.066 865.368C854.066 865.372 854.066 865.376 854.066 865.379C854.066 865.383 854.066 865.387 854.066 865.39C854.066 865.394 854.066 865.398 854.066 865.401C854.066 865.405 854.066 865.409 854.066 865.412C854.066 865.416 854.066 865.419 854.066 865.423C854.066 865.427 854.066 865.43 854.066 865.434C854.066 865.438 854.066 865.441 854.066 865.445C854.066 865.448 854.066 865.452 854.066 865.456C854.066 865.459 854.066 865.463 854.066 865.466C854.066 865.47 854.066 865.474 854.066 865.477C854.066 865.481 854.066 865.484 854.066 865.488C854.066 865.491 854.066 865.495 854.066 865.499C854.066 865.502 854.066 865.506 854.066 865.509C854.066 865.513 854.066 865.517 854.066 865.52C854.066 865.524 854.066 865.527 854.066 865.531C854.066 865.534 854.066 865.538 854.066 865.542C854.066 865.545 854.066 865.549 854.066 865.552C854.066 865.556 854.066 865.559 854.066 865.563C854.066 865.566 854.066 865.57 854.066 865.573C854.066 865.577 854.066 865.581 854.066 865.584C854.066 865.588 854.066 865.591 854.066 865.595C854.066 865.598 854.066 865.602 854.066 865.605C854.066 865.609 854.066 865.612 854.066 865.616C854.066 865.619 854.066 865.623 854.066 865.626C854.066 865.63 854.066 865.633 854.066 865.637C854.066 865.64 854.066 865.644 854.066 865.647C854.066 865.651 854.066 865.654 854.066 865.658C854.066 865.661 854.066 865.665 854.066 865.668C854.066 865.672 854.066 865.675 854.066 865.679C854.066 865.682 854.066 865.686 854.066 865.689C854.066 865.693 854.066 865.696 854.066 865.7C854.066 865.703 854.066 865.707 854.066 865.71C854.066 865.714 854.066 865.717 854.066 865.72C854.066 865.724 854.066 865.727 854.066 865.731C854.066 865.734 854.066 865.738 854.066 865.741C854.066 865.745 854.066 865.748 854.066 865.752C854.066 865.755 854.066 865.758 854.066 865.762C854.066 865.765 854.066 865.769 854.066 865.772C854.066 865.776 854.066 865.779 854.066 865.782C854.066 865.786 854.066 865.789 854.066 865.793C854.066 865.796 854.066 865.8 854.066 865.803C854.066 865.806 854.066 865.81 854.066 865.813C854.066 865.817 854.066 865.82 854.066 865.823C854.066 865.827 854.066 865.83 854.066 865.834C854.066 865.837 854.066 865.84 854.066 865.844C854.066 865.847 854.066 865.851 854.066 865.854C854.066 865.857 854.066 865.861 854.066 865.864C854.066 865.867 854.066 865.871 854.066 865.874C854.066 865.878 854.066 865.881 854.066 865.884C854.066 865.888 854.066 865.891 854.066 865.894C854.066 865.898 854.066 865.901 854.066 865.905C854.066 865.908 854.066 865.911 854.066 865.915C854.066 865.918 854.066 865.921 854.066 865.925C854.066 865.928 854.066 865.931 854.066 865.935C854.066 865.938 854.066 865.941 854.066 865.945C854.066 865.948 854.066 865.951 854.066 865.955C854.066 865.958 854.066 865.961 854.066 865.965C854.066 865.968 854.066 865.971 854.066 865.975C854.066 865.978 854.066 865.981 854.066 865.985C854.066 865.988 854.066 865.991 854.066 865.995C854.066 865.998 854.066 866.001 854.066 866.004C854.066 866.008 854.066 866.011 854.066 866.014C854.066 866.018 854.066 866.021 854.066 866.024C854.066 866.027 854.066 866.031 854.066 866.034C854.066 866.037 854.066 866.041 854.066 866.044C854.066 866.047 854.066 866.05 854.066 866.054C854.066 866.057 854.066 866.06 854.066 866.064C854.066 866.067 854.066 866.07 854.066 866.073C854.066 866.077 854.066 866.08 854.066 866.083C854.066 866.086 854.066 866.09 854.066 866.093C854.066 866.096 854.066 866.099 854.066 866.103C854.066 866.106 854.066 866.109 854.066 866.112C854.066 866.116 854.066 866.119 854.066 866.122C854.066 866.125 854.066 866.128 854.066 866.132C854.066 866.135 854.066 866.138 854.066 866.141C854.066 866.145 854.066 866.148 854.066 866.151C854.066 866.154 854.066 866.157 854.066 866.161C854.066 866.164 854.066 866.167 854.066 866.17C854.066 866.173 854.066 866.177 854.066 866.18C854.066 866.183 854.066 866.186 854.066 866.189C854.066 866.193 854.066 866.196 854.066 866.199C854.066 866.202 854.066 866.205 854.066 866.209C854.066 866.212 854.066 866.215 854.066 866.218C854.066 866.221 854.066 866.224 854.066 866.228C854.066 866.231 854.066 866.234 854.066 866.237C854.066 866.24 854.066 866.243 854.066 866.247C854.066 866.25 854.066 866.253 854.066 866.256C854.066 866.259 854.066 866.262 854.066 866.266C854.066 866.269 854.066 866.272 854.066 866.275C854.066 866.278 854.066 866.281 854.066 866.284C854.066 866.287 854.066 866.291 854.066 866.294C854.066 866.297 854.066 866.3 854.066 866.303C854.066 866.306 854.066 866.309 854.066 866.312C854.066 866.316 854.066 866.319 854.066 866.322C854.066 866.325 854.066 866.328 854.066 866.331C854.066 866.334 854.066 866.337 854.066 866.34C854.066 866.344 854.066 866.347 854.066 866.35C854.066 866.353 854.066 866.356 854.066 866.359C854.066 866.362 854.066 866.365 854.066 866.368C854.066 866.371 854.066 866.374 854.066 866.378C854.066 866.381 854.066 866.384 854.066 866.387C854.066 866.39 854.066 866.393 854.066 866.396C854.066 866.399 854.066 866.402 854.066 866.405C854.066 866.408 854.066 866.411 854.066 866.414C854.066 866.417 854.066 866.42 854.066 866.423C854.066 866.427 854.066 866.43 854.066 866.433C854.066 866.436 854.066 866.439 854.066 866.442C854.066 866.445 854.066 866.448 854.066 866.451C854.066 866.454 854.066 866.457 854.066 866.46C854.066 866.463 854.066 866.466 854.066 866.469C854.066 866.472 854.066 866.475 854.066 866.478C854.066 866.481 854.066 866.484 854.066 866.487C854.066 866.49 854.066 866.493 854.066 866.496C854.066 866.499 854.066 866.502 854.066 866.505C854.066 866.508 854.066 866.511 854.066 866.514C854.066 866.517 854.066 866.52 854.066 866.523C854.066 866.526 854.066 866.529 854.066 866.532C854.066 866.535 854.066 866.538 854.066 866.541C854.066 866.544 854.066 866.547 854.066 866.55C854.066 866.553 854.066 866.556 854.066 866.559C854.066 866.562 854.066 866.565 854.066 866.568C854.066 866.571 854.066 866.574 854.066 866.576C854.066 866.579 854.066 866.582 854.066 866.585C854.066 866.588 854.066 866.591 854.066 866.594C854.066 866.597 854.066 866.6 854.066 866.603C854.066 866.606 854.066 866.609 854.066 866.612C854.066 866.615 854.066 866.618 854.066 866.621C854.066 866.623 854.066 866.626 854.066 866.629C854.066 866.632 854.066 866.635 854.066 866.638C854.066 866.641 854.066 866.644 854.066 866.647C854.066 866.65 854.066 866.653 854.066 866.655C854.066 866.658 854.066 866.661 854.066 866.664C854.066 866.667 854.066 866.67 854.066 866.673C854.066 866.676 854.066 866.679 854.066 866.681C854.066 866.684 854.066 866.687 854.066 866.69C854.066 866.693 854.066 866.696 854.066 866.699C854.066 866.702 854.066 866.704 854.066 866.707C854.066 866.71 854.066 866.713 854.066 866.716C854.066 866.719 854.066 866.722 854.066 866.724C854.066 866.727 854.066 866.73 854.066 866.733C854.066 866.736 854.066 866.739 854.066 866.742C854.066 866.744 854.066 866.747 854.066 866.75C854.066 866.753 854.066 866.756 854.066 866.759C854.066 866.761 854.066 866.764 854.066 866.767C854.066 866.77 854.066 866.773 854.066 866.776C854.066 866.778 854.066 866.781 854.066 866.784C854.066 866.787 854.066 866.79 854.066 866.792C854.066 866.795 854.066 866.798 854.066 866.801C854.066 866.804 854.066 866.806 854.066 866.809C854.066 866.812 854.066 866.815 854.066 866.818C854.066 866.82 854.066 866.823 854.066 866.826C854.066 866.829 854.066 866.832 854.066 866.834C854.066 866.837 854.066 866.84 854.066 866.843C854.066 866.845 854.066 866.848 854.066 866.851C854.066 866.854 854.066 866.857 854.066 866.859C854.066 866.862 854.066 866.865 854.066 866.868C854.066 866.87 854.066 866.873 854.066 866.876C854.066 866.879 854.066 866.881 854.066 866.884C854.066 866.887 854.066 866.89 854.066 866.892C854.066 866.895 854.066 866.898 854.066 866.901C854.066 866.903 854.066 866.906 854.066 866.909C854.066 866.911 854.066 866.914 854.066 866.917C854.066 866.92 854.066 866.922 854.066 866.925C854.066 866.928 854.066 866.93 854.066 866.933C854.066 866.936 854.066 866.939 854.066 866.941C854.066 866.944 854.066 866.947 854.066 866.949C854.066 866.952 854.066 866.955 854.066 866.958C854.066 866.96 854.066 866.963 854.066 866.966C854.066 866.968 854.066 866.971 854.066 866.974C854.066 866.976 854.066 866.979 854.066 866.982C854.066 866.984 854.066 866.987 854.066 866.99C854.066 866.992 854.066 866.995 854.066 866.998C854.066 867 854.066 867.003 854.066 867.006C854.066 867.008 854.066 867.011 854.066 867.014C854.066 867.016 854.066 867.019 854.066 867.022C854.066 867.024 854.066 867.027 854.066 867.03C854.066 867.032 854.066 867.035 854.066 867.037C854.066 867.04 854.066 867.043 854.066 867.045C854.066 867.048 854.066 867.051 854.066 867.053C854.066 867.056 854.066 867.059 854.066 867.061C854.066 867.064 854.066 867.066 854.066 867.069C854.066 867.072 854.066 867.074 854.066 867.077C854.066 867.079 854.066 867.082 854.066 867.085C854.066 867.087 854.066 867.09 854.066 867.092C854.066 867.095 854.066 867.098 854.066 867.1C854.066 867.103 854.066 867.105 854.066 867.108C854.066 867.111 854.066 867.113 854.066 867.116C854.066 867.118 854.066 867.121 854.066 867.123C854.066 867.126 854.066 867.129 854.066 867.131C854.066 867.134 854.066 867.136 854.066 867.139C854.066 867.141 854.066 867.144 854.066 867.147C854.066 867.149 854.066 867.152 854.066 867.154C854.066 867.157 854.066 867.159 854.066 867.162C854.066 867.164 854.066 867.167 854.066 867.169C854.066 867.172 854.066 867.175 854.066 867.177C854.066 867.18 854.066 867.182 854.066 867.185C854.066 867.187 854.066 867.19 854.066 867.192C854.066 867.195 854.066 867.197 854.066 867.2C854.066 867.202 854.066 867.205 854.066 867.207C854.066 867.21 854.066 867.212 854.066 867.215C854.066 867.217 854.066 867.22 854.066 867.222C854.066 867.225 854.066 867.227 854.066 867.23C854.066 867.232 854.066 867.235 854.066 867.237C854.066 867.24 854.066 867.242 854.066 867.245C854.066 867.247 854.066 867.25 854.066 867.252C854.066 867.255 854.066 867.257 854.066 867.26C854.066 867.262 854.066 867.265 854.066 867.267C854.066 867.27 854.066 867.272 854.066 867.274C854.066 867.277 854.066 867.279 854.066 867.282C854.066 867.284 854.066 867.287 854.066 867.289C854.066 867.292 854.066 867.294 854.066 867.297C854.066 867.299 854.066 867.301 854.066 867.304C854.066 867.306 854.066 867.309 854.066 867.311C854.066 867.314 854.066 867.316 854.066 867.318C854.066 867.321 854.066 867.323 854.066 867.326C854.066 867.328 854.066 867.331 854.066 867.333C854.066 867.335 854.066 867.338 854.066 867.34C854.066 867.343 854.066 867.345 854.066 867.347C854.066 867.35 854.066 867.352 854.066 867.355C854.066 867.357 854.066 867.359 854.066 867.362C854.066 867.364 854.066 867.367 854.066 867.369C854.066 867.371 854.066 867.374 854.066 867.376C854.066 867.378 854.066 867.381 854.066 867.383C854.066 867.386 854.066 867.388 854.066 867.39C854.066 867.393 854.066 867.395 854.066 867.397C854.066 867.4 854.066 867.402 854.066 867.404C854.066 867.407 854.066 867.409 854.066 867.412C854.066 867.414 854.066 867.416 854.066 867.419C854.066 867.421 854.066 867.423 854.066 867.426C854.066 867.428 854.066 867.43 854.066 867.433C854.066 867.435 854.066 867.437 854.066 867.44C854.066 867.442 854.066 867.444 854.066 867.447C854.066 867.449 854.066 867.451 854.066 867.454C854.066 867.456 854.066 867.458 854.066 867.461C854.066 867.463 854.066 867.465 854.066 867.467C854.066 867.47 854.066 867.472 854.066 867.474C854.066 867.477 854.066 867.479 854.066 867.481C854.066 867.484 854.066 867.486 854.066 867.488C854.066 867.49 854.066 867.493 854.066 867.495C854.066 867.497 854.066 867.5 854.066 867.502C854.066 867.504 854.066 867.506 854.066 867.509C854.066 867.511 854.066 867.513 854.066 867.515C854.066 867.518 854.066 867.52 854.066 867.522C854.066 867.524 854.066 867.527 854.066 867.529C854.066 867.531 854.066 867.533 854.066 867.536C854.066 867.538 854.066 867.54 854.066 867.542C854.066 867.545 854.066 867.547 854.066 867.549C854.066 867.551 854.066 867.554 854.066 867.556C854.066 867.558 854.066 867.56 854.066 867.563C854.066 867.565 854.066 867.567 854.066 867.569C854.066 867.571 854.066 867.574 854.066 867.576C854.066 867.578 854.066 867.58 854.066 867.582C854.066 867.585 854.066 867.587 854.066 867.589C854.066 867.591 854.066 867.594 854.066 867.596C854.066 867.598 854.066 867.6 854.066 867.602C854.066 867.604 854.066 867.607 854.066 867.609C854.066 867.611 854.066 867.613 854.066 867.615C854.066 867.618 854.066 867.62 854.066 867.622C854.066 867.624 854.066 867.626 854.066 867.628C854.066 867.631 854.066 867.633 854.066 867.635C854.066 867.637 854.066 867.639 854.066 867.641C854.066 867.644 854.066 867.646 854.066 867.648C854.066 867.65 854.066 867.652 854.066 867.654C854.066 867.656 854.066 867.659 854.066 867.661C854.066 867.663 854.066 867.665 854.066 867.667C854.066 867.669 854.066 867.671 854.066 867.674C854.066 867.676 854.066 867.678 854.066 867.68C854.066 867.682 854.066 867.684 854.066 867.686C854.066 867.688 854.066 867.69 854.066 867.693C854.066 867.695 854.066 867.697 854.066 867.699C854.066 867.701 854.066 867.703 854.066 867.705C854.066 867.707 854.066 867.709 854.066 867.711C854.066 867.714 854.066 867.716 854.066 867.718C854.066 867.72 854.066 867.722 854.066 867.724C854.066 867.726 854.066 867.728 854.066 867.73C854.066 867.732 854.066 867.734 854.066 867.736C854.066 867.739 854.066 867.741 854.066 867.743C854.066 867.745 854.066 867.747 854.066 867.749C854.066 867.751 854.066 867.753 854.066 867.755C854.066 867.757 854.066 867.759 854.066 867.761C854.066 867.763 854.066 867.765 854.066 867.767C854.066 867.769 854.066 867.771 854.066 867.773C854.066 867.775 854.066 867.778 854.066 867.78C854.066 867.782 854.066 867.784 854.066 867.786C854.066 867.788 854.066 867.79 854.066 867.792C854.066 867.794 854.066 867.796 854.066 867.798C854.066 867.8 854.066 867.802 854.066 867.804C854.066 867.806 854.066 867.808 854.066 867.81C854.066 867.812 854.066 867.814 854.066 867.816C854.066 867.818 854.066 867.82 854.066 867.822C854.066 867.824 854.066 867.826 854.066 867.828C854.066 867.83 854.066 867.832 854.066 867.834C854.066 867.836 854.066 867.838 854.066 867.84C854.066 867.842 854.066 867.844 854.066 867.846C854.066 867.847 854.066 867.849 854.066 867.851C854.066 867.853 854.066 867.855 854.066 867.857C854.066 867.859 854.066 867.861 854.066 867.863C854.066 867.865 854.066 867.867 854.066 867.869C854.066 867.871 854.066 867.873 854.066 867.875C854.066 867.877 854.066 867.879 854.066 867.881C854.066 867.883 854.066 867.884 854.066 867.886C854.066 867.888 854.066 867.89 854.066 867.892C854.066 867.894 854.066 867.896 854.066 867.898C854.066 867.9 854.066 867.902 854.066 867.904C854.066 867.906 854.066 867.907 854.066 867.909C854.066 867.911 854.066 867.913 854.066 867.915C854.066 867.917 854.066 867.919 854.066 867.921C854.066 867.923 854.066 867.925 854.066 867.926C854.066 867.928 854.066 867.93 854.066 867.932C854.066 867.934 854.066 867.936 854.066 867.938C854.066 867.94 854.066 867.941 854.066 867.943C854.066 867.945 854.066 867.947 854.066 867.949C854.066 867.951 854.066 867.953 854.066 867.955C854.066 867.956 854.066 867.958 854.066 867.96C854.066 867.962 854.066 867.964 854.066 867.966C854.066 867.967 854.066 867.969 854.066 867.971C854.066 867.973 854.066 867.975 854.066 867.977C854.066 867.979 854.066 867.98 854.066 867.982C854.066 867.984 854.066 867.986 854.066 867.988C854.066 867.99 854.066 867.991 854.066 867.993C854.066 867.995 854.066 867.997 854.066 867.999C854.066 868 854.066 868.002 854.066 868.004C854.066 868.006 854.066 868.008 854.066 868.009C854.066 868.011 854.066 868.013 854.066 868.015C854.066 868.017 854.066 868.018 854.066 868.02C854.066 868.022 854.066 868.024 854.066 868.026C854.066 868.027 854.066 868.029 854.066 868.031C854.066 868.033 854.066 868.034 854.066 868.036C854.066 868.038 854.066 868.04 854.066 868.042C854.066 868.043 854.066 868.045 854.066 868.047C854.066 868.049 854.066 868.05 854.066 868.052C854.066 868.054 854.066 868.056 854.066 868.057C854.066 868.059 854.066 868.061 854.066 868.063C854.066 868.064 854.066 868.066 854.066 868.068C854.066 868.07 854.066 868.071 854.066 868.073C854.066 868.075 854.066 868.076 854.066 868.078C854.066 868.08 854.066 868.082 854.066 868.083C854.066 868.085 854.066 868.087 854.066 868.089C854.066 868.09 854.066 868.092 854.066 868.094C854.066 868.095 854.066 868.097 854.066 868.099C854.066 868.101 854.066 868.102 854.066 868.104C854.066 868.106 854.066 868.107 854.066 868.109C854.066 868.111 854.066 868.112 854.066 868.114C854.066 868.116 854.066 868.117 854.066 868.119C854.066 868.121 854.066 868.122 854.066 868.124C854.066 868.126 854.066 868.128 854.066 868.129C854.066 868.131 854.066 868.133 854.066 868.134C854.066 868.136 854.066 868.138 854.066 868.139C854.066 868.141 854.066 868.142 854.066 868.144C854.066 868.146 854.066 868.147 854.066 868.149C854.066 868.151 854.066 868.152 854.066 868.154C854.066 868.156 854.066 868.157 854.066 868.159C854.066 868.161 854.066 868.162 854.066 868.164C854.066 868.165 854.066 868.167 854.066 868.169C854.066 868.17 854.066 868.172 854.066 868.174C854.066 868.175 854.066 868.177 854.066 868.178C854.066 868.18 854.066 868.182 854.066 868.183C854.066 868.185 854.066 868.186 854.066 868.188C854.066 868.19 854.066 868.191 854.066 868.193C854.066 868.194 854.066 868.196 854.066 868.198C854.066 868.199 854.066 868.201 854.066 868.202C854.066 868.204 854.066 868.206 854.066 868.207C854.066 868.209 854.066 868.21 854.066 868.212C854.066 868.213 854.066 868.215 854.066 868.217C854.066 868.218 854.066 868.22 854.066 868.221C854.066 868.223 854.066 868.224 854.066 868.226C854.066 868.227 854.066 868.229 854.066 868.231C854.066 868.232 854.066 868.234 854.066 868.235C854.066 868.237 854.066 868.238 854.066 868.24C854.066 868.241 854.066 868.243 854.066 868.244C854.066 868.246 854.066 868.247 854.066 868.249C854.066 868.251 854.066 868.252 854.066 868.254C854.066 868.255 854.066 868.257 854.066 868.258C854.066 868.26 854.066 868.261 854.066 868.263C854.066 868.264 854.066 868.266 854.066 868.267C854.066 868.269 854.066 868.27 854.066 868.272C854.066 868.273 854.066 868.275 854.066 868.276C854.066 868.278 854.066 868.279 854.066 868.281C854.066 868.282 854.066 868.284 854.066 868.285C854.066 868.287 854.066 868.288 854.066 868.29C854.066 868.291 854.066 868.292 854.066 868.294C854.066 868.295 854.066 868.297 854.066 868.298C854.066 868.3 854.066 868.301 854.066 868.303C854.066 868.304 854.066 868.306 854.066 868.307C854.066 868.309 854.066 868.31 854.066 868.311C854.066 868.313 854.066 868.314 854.066 868.316C854.066 868.317 854.066 868.319 854.066 868.32C854.066 868.322 854.066 868.323 854.066 868.324C854.066 868.326 854.066 868.327 854.066 868.329C854.066 868.33 854.066 868.332 854.066 868.333C854.066 868.334 854.066 868.336 854.066 868.337C854.066 868.339 854.066 868.34 854.066 868.341C854.066 868.343 854.066 868.344 854.066 868.346C854.066 868.347 854.066 868.348 854.066 868.35C854.066 868.351 854.066 868.353 854.066 868.354C854.066 868.355 854.066 868.357 854.066 868.358C854.066 868.36 854.066 868.361 854.066 868.362C854.066 868.364 854.066 868.365 854.066 868.366C854.066 868.368 854.066 868.369 854.066 868.371C854.066 868.372 854.066 868.373 854.066 868.375C854.066 868.376 854.066 868.377 854.066 868.379C854.066 868.38 854.066 868.381 854.066 868.383C854.066 868.384 854.066 868.385 854.066 868.387C854.066 868.388 854.066 868.389 854.066 868.391C854.066 868.392 854.066 868.393 854.066 868.395C854.066 868.396 854.066 868.397 854.066 868.399C854.066 868.4 854.066 868.401 854.066 868.403C854.066 868.404 854.066 868.405 854.066 868.407C854.066 868.408 854.066 868.409 854.066 868.411C854.066 868.412 854.066 868.413 854.066 868.415C854.066 868.416 854.066 868.417 854.066 868.419C854.066 868.42 854.066 868.421 854.066 868.422C854.066 868.424 854.066 868.425 854.066 868.426C854.066 868.428 854.066 868.429 854.066 868.43C854.066 868.431 854.066 868.433 854.066 868.434C854.066 868.435 854.066 868.436 854.066 868.438C854.066 868.439 854.066 868.44 854.066 868.442C854.066 868.443 854.066 868.444 854.066 868.445C854.066 868.447 854.066 868.448 854.066 868.449C854.066 868.45 854.066 868.452 854.066 868.453C854.066 868.454 854.066 868.455 854.066 868.457C854.066 868.458 854.066 868.459 854.066 868.46C854.066 868.462 854.066 868.463 854.066 868.464C854.066 868.465 854.066 868.466 854.066 868.468C854.066 868.469 854.066 868.47 854.066 868.471C854.066 868.473 854.066 868.474 854.066 868.475C854.066 868.476 854.066 868.477 854.066 868.479C854.066 868.48 854.066 868.481 854.066 868.482C854.066 868.483 854.066 868.485 854.066 868.486C854.066 868.487 854.066 868.488 854.066 868.489C854.066 868.491 854.066 868.492 854.066 868.493C854.066 868.494 854.066 868.495 854.066 868.496C854.066 868.498 854.066 868.499 854.066 868.5H856.066ZM856.058 864.574C856.362 862.139 856.516 859.847 856.516 857.7H854.516C854.516 859.753 854.369 861.961 854.073 864.326L856.058 864.574ZM856.516 857.7C856.516 835.683 852.595 816.625 844.713 800.56L842.918 801.44C850.637 817.175 854.516 835.917 854.516 857.7H856.516ZM844.713 800.56C836.83 784.489 825.444 772.186 810.562 763.682L809.57 765.418C824.088 773.714 835.202 785.711 842.918 801.44L844.713 800.56ZM810.583 763.694C795.997 754.882 778.409 750.5 757.866 750.5V752.5C778.122 752.5 795.335 756.818 809.549 765.406L810.583 763.694ZM757.866 750.5C737.314 750.5 719.137 755.035 703.366 764.134L704.365 765.866C719.794 756.965 737.617 752.5 757.866 752.5V750.5ZM703.359 764.138C687.895 773.234 675.768 785.972 666.985 802.327L668.747 803.273C677.363 787.228 689.236 774.766 704.373 765.862L703.359 764.138ZM666.978 802.34C658.492 818.706 654.266 837.769 654.266 859.5H656.266C656.266 838.031 660.44 819.294 668.753 803.26L666.978 802.34ZM654.266 859.5C654.266 880.928 658.341 899.836 666.521 916.197L668.31 915.303C660.291 899.264 656.266 880.672 656.266 859.5H654.266ZM666.528 916.21C675.005 932.56 686.674 945.446 701.531 954.845L702.6 953.155C688.057 943.954 676.626 931.34 668.303 915.29L666.528 916.21ZM701.551 954.857C716.721 963.96 734.003 968.5 753.366 968.5V966.5C734.329 966.5 717.41 962.04 702.58 953.143L701.551 954.857ZM940.857 756H941.857V755H940.857V756ZM904.857 756V755H903.857V756H904.857ZM904.857 963H903.857V964H904.857V963ZM940.857 963V964H941.857V963H940.857ZM1003.41 795.6L1002.81 796.4L1003.65 797.034L1004.24 796.155L1003.41 795.6ZM1023.21 765.9L1024.04 766.455L1024.48 765.791L1023.93 765.212L1023.21 765.9ZM1005.21 754.65L1004.89 755.599L1004.92 755.607L1004.94 755.615L1005.21 754.65ZM933.207 793.35L932.301 792.928L932.296 792.938L933.207 793.35ZM924.657 837H923.657V838H924.657V837ZM940.857 837V838H941.857V837H940.857ZM943.557 810.45L942.592 810.19L942.587 810.208L942.583 810.225L943.557 810.45ZM954.357 792L953.696 791.25L954.357 792ZM990.357 787.95L989.938 788.858L989.968 788.872L989.998 788.883L990.357 787.95ZM940.857 755H904.857V757H940.857V755ZM903.857 756V963H905.857V756H903.857ZM904.857 964H940.857V962H904.857V964ZM941.857 963V756H939.857V963H941.857ZM1004.24 796.155L1024.04 766.455L1022.38 765.345L1002.58 795.045L1004.24 796.155ZM1023.93 765.212C1018.43 759.399 1012.27 755.54 1005.47 753.685L1004.94 755.615C1011.34 757.36 1017.19 761.001 1022.48 766.588L1023.93 765.212ZM1005.52 753.701C999.109 751.563 992.101 750.5 984.507 750.5V752.5C991.914 752.5 998.705 753.537 1004.89 755.599L1005.52 753.701ZM984.507 750.5C974.628 750.5 964.963 754.364 955.53 761.972L956.785 763.528C965.952 756.136 975.187 752.5 984.507 752.5V750.5ZM955.53 761.972C946.09 769.584 938.353 779.916 932.301 792.928L934.114 793.772C940.062 780.984 947.625 770.916 956.785 763.528L955.53 761.972ZM932.296 792.938C926.528 805.69 923.657 820.385 923.657 837H925.657C925.657 820.615 928.487 806.21 934.119 793.762L932.296 792.938ZM924.657 838H940.857V836H924.657V838ZM941.857 837C941.857 827.159 942.752 818.386 944.532 810.675L942.583 810.225C940.763 818.114 939.857 827.041 939.857 837H941.857ZM944.523 810.71C946.582 803.063 950.092 797.097 955.019 792.75L953.696 791.25C948.423 795.903 944.733 802.237 942.592 810.19L944.523 810.71ZM955.019 792.75C959.884 788.457 966.671 786.25 975.507 786.25V784.25C966.344 784.25 959.031 786.543 953.696 791.25L955.019 792.75ZM975.507 786.25C981.416 786.25 986.211 787.138 989.938 788.858L990.776 787.042C986.704 785.162 981.598 784.25 975.507 784.25V786.25ZM989.998 788.883C993.784 790.339 998.052 792.833 1002.81 796.4L1004.01 794.8C999.163 791.167 994.731 788.561 990.716 787.017L989.998 788.883Z" fill="#FCC7C7"/>
</g>
<rect x="-6.5" y="6.5" width="1292" height="1214" rx="79.5" transform="matrix(-1 0 0 1 1292 0)" stroke="#820808" stroke-width="13"/>
<defs>
<filter id="filter0_d_2_30" x="193.506" y="261.727" width="948.35" height="713.773" filterUnits="userSpaceOnUse" color-interpolation-filters="sRGB">
<feFlood flood-opacity="0" result="BackgroundImageFix"/>
<feColorMatrix in="SourceAlpha" type="matrix" values="0 0 0 0 0 0 0 0 0 0 0 0 0 0 0 0 0 0 127 0" result="hardAlpha"/>
<feOffset dy="4"/>
<feGaussianBlur stdDeviation="2"/>
<feComposite in2="hardAlpha" operator="out"/>
<feColorMatrix type="matrix" values="0 0 0 0 0 0 0 0 0 0 0 0 0 0 0 0 0 0 0.25 0"/>
<feBlend mode="normal" in2="BackgroundImageFix" result="effect1_dropShadow_2_30"/>
<feBlend mode="normal" in="SourceGraphic" in2="effect1_dropShadow_2_30" result="shape"/>
</filter>
</defs>
</svg>
