<svg width="1032" height="1117" viewBox="0 0 1032 1117" fill="none" xmlns="http://www.w3.org/2000/svg">
<g filter="url(#filter0_d_185_511)">
<path fill-rule="evenodd" clip-rule="evenodd" d="M572.325 1335.47L529.101 1258.5C484.592 1179.86 375.233 1025.04 399.239 880.135C423.097 736.762 580.32 603.29 675.953 465.244C771.586 327.198 529.788 207.323 503.508 59.1451C477.374 -90.5687 725.492 -262.958 739.323 -407.293C753.301 -553.163 828.731 -691.595 895.96 -759.532L964.475 -825.797L1086.24 -814.129L1079.33 -741.962C1072.26 -668.259 1058.43 -523.924 1044.45 -378.054C1030.62 -233.719 1016.65 -87.8489 1002.67 58.0214C988.838 202.356 974.86 348.226 961.029 492.561C947.052 638.431 933.074 784.302 919.243 928.636C905.265 1074.51 891.435 1218.84 884.372 1292.54L877.457 1364.71L572.325 1335.47Z" fill="#D30450"/>
<path fill-rule="evenodd" clip-rule="evenodd" d="M572.325 1335.47L529.101 1258.5C484.592 1179.86 375.233 1025.04 399.239 880.135C423.097 736.762 580.32 603.29 675.953 465.244C771.586 327.198 529.788 207.323 503.508 59.1451C477.374 -90.5687 725.492 -262.958 739.323 -407.293C753.301 -553.163 828.731 -691.595 895.96 -759.532L964.475 -825.797L1086.24 -814.129L1079.33 -741.962C1072.26 -668.259 1058.43 -523.924 1044.45 -378.054C1030.62 -233.719 1016.65 -87.8489 1002.67 58.0214C988.838 202.356 974.86 348.226 961.029 492.561C947.052 638.431 933.074 784.302 919.243 928.636C905.265 1074.51 891.435 1218.84 884.372 1292.54L877.457 1364.71L572.325 1335.47Z" stroke="black"/>
</g>
<g filter="url(#filter1_d_185_511)">
<path fill-rule="evenodd" clip-rule="evenodd" d="M815.285 928.656L747.249 901.94C677.44 874.813 608.3 788.863 569.722 686.793C531.644 585.752 524.128 468.59 549.182 335.605C574.237 202.62 420.922 128.813 338.301 49.4119C255.18 -31.0178 294.932 -142.391 247.945 -239.105C200.459 -336.847 208.196 -460.147 237.654 -535.501L268.885 -610.445L377.06 -663L400.554 -614.643C424.547 -565.258 471.534 -468.545 519.02 -370.803C566.007 -274.089 613.494 -176.347 660.98 -78.6053C707.967 18.1079 755.453 115.85 802.44 212.563C849.927 310.305 897.414 408.047 944.4 504.761C991.887 602.503 1038.87 699.216 1062.87 748.602L1086.36 796.958L815.285 928.656Z" fill="#E20041"/>
<path fill-rule="evenodd" clip-rule="evenodd" d="M815.285 928.656L747.249 901.94C677.44 874.813 608.3 788.863 569.722 686.793C531.644 585.752 524.128 468.59 549.182 335.605C574.237 202.62 420.922 128.813 338.301 49.4119C255.18 -31.0178 294.932 -142.391 247.945 -239.105C200.459 -336.847 208.196 -460.147 237.654 -535.501L268.885 -610.445L377.06 -663L400.554 -614.643C424.547 -565.258 471.534 -468.545 519.02 -370.803C566.007 -274.089 613.494 -176.347 660.98 -78.6053C707.967 18.1079 755.453 115.85 802.44 212.563C849.927 310.305 897.414 408.047 944.4 504.761C991.887 602.503 1038.87 699.216 1062.87 748.602L1086.36 796.958L815.285 928.656Z" stroke="black"/>
</g>
<g filter="url(#filter2_d_185_511)">
<path fill-rule="evenodd" clip-rule="evenodd" d="M869.142 621.126L801.917 598.019C732.932 574.58 666.559 495.292 631.314 399.694C596.535 305.056 592.884 194.109 622.36 67.0669C651.836 -59.9749 620.948 -127.704 540.864 -200.332C460.314 -273.919 383.64 -378.187 339.8 -468.423C295.494 -559.619 307.314 -676.897 339.294 -749.387L373.034 -821.547L483.06 -875.002L504.98 -829.884C527.366 -783.806 571.206 -693.57 615.512 -602.374C659.352 -512.138 703.658 -420.943 747.965 -329.747C791.804 -239.511 836.11 -148.316 879.95 -58.0798C924.256 33.1159 968.563 124.312 1012.4 214.547C1056.71 305.743 1100.55 395.979 1122.93 442.057L1144.85 487.175L869.142 621.126Z" fill="#FF0053"/>
<path fill-rule="evenodd" clip-rule="evenodd" d="M869.142 621.126L801.917 598.019C732.932 574.58 666.559 495.292 631.314 399.694C596.535 305.056 592.884 194.109 622.36 67.0669C651.836 -59.9749 620.948 -127.704 540.864 -200.332C460.314 -273.919 383.64 -378.187 339.8 -468.423C295.494 -559.619 307.314 -676.897 339.294 -749.387L373.034 -821.547L483.06 -875.002L504.98 -829.884C527.366 -783.806 571.206 -693.57 615.512 -602.374C659.352 -512.138 703.658 -420.943 747.965 -329.747C791.804 -239.511 836.11 -148.316 879.95 -58.0798C924.256 33.1159 968.563 124.312 1012.4 214.547C1056.71 305.743 1100.55 395.979 1122.93 442.057L1144.85 487.175L869.142 621.126Z" stroke="black"/>
</g>
<g filter="url(#filter3_d_185_511)">
<path fill-rule="evenodd" clip-rule="evenodd" d="M751.897 1222L703.406 1176.95C653.53 1130.95 629.412 1040.86 639.11 949.807C648.809 859.716 692.322 768.666 771.294 677.616C850.265 586.566 847.691 496.474 808.898 406.383C770.105 315.333 751.897 224.283 751.897 134.191C751.897 43.1409 811.472 -46.9507 869.661 -92.955L929.236 -138.001H1047V-92.955C1047 -46.9507 1047 43.1409 1047 134.191C1047 224.283 1047 315.333 1047 406.383C1047 496.474 1047 587.524 1047 677.616C1047 768.666 1047 859.716 1047 949.807C1047 1040.86 1047 1130.95 1047 1176.95V1222H751.897Z" fill="#18202B"/>
<path fill-rule="evenodd" clip-rule="evenodd" d="M751.897 1222L703.406 1176.95C653.53 1130.95 629.412 1040.86 639.11 949.807C648.809 859.716 692.322 768.666 771.294 677.616C850.265 586.566 847.691 496.474 808.898 406.383C770.105 315.333 751.897 224.283 751.897 134.191C751.897 43.1409 811.472 -46.9507 869.661 -92.955L929.236 -138.001H1047V-92.955C1047 -46.9507 1047 43.1409 1047 134.191C1047 224.283 1047 315.333 1047 406.383C1047 496.474 1047 587.524 1047 677.616C1047 768.666 1047 859.716 1047 949.807C1047 1040.86 1047 1130.95 1047 1176.95V1222H751.897Z" stroke="black"/>
</g>
<g filter="url(#filter4_df_185_511)">
<circle cx="480.5" cy="270.499" r="29.5" fill="#E20041"/>
</g>
<g filter="url(#filter5_f_185_511)">
<ellipse cx="467.868" cy="258.845" rx="6.5" ry="13.5" transform="rotate(33.4739 467.868 258.845)" fill="white"/>
</g>
<g filter="url(#filter6_df_185_511)">
<circle cx="665" cy="686.999" r="57" fill="#FF0053"/>
</g>
<g filter="url(#filter7_f_185_511)">
<ellipse cx="640.592" cy="664.481" rx="12.5593" ry="26.0847" transform="rotate(33.4739 640.592 664.481)" fill="white"/>
</g>
<g filter="url(#filter8_df_185_511)">
<circle cx="539.5" cy="998.499" r="68.5" fill="#FF0053"/>
</g>
<g filter="url(#filter9_f_185_511)">
<ellipse cx="510.495" cy="971.533" rx="15.0783" ry="31.3164" transform="rotate(33.4739 510.495 971.533)" fill="white"/>
</g>
<g filter="url(#filter10_df_185_511)">
<circle cx="842" cy="892" r="45" fill="#FF0053"/>
</g>
<g filter="url(#filter11_f_185_511)">
<ellipse cx="822.731" cy="874.223" rx="9.91525" ry="20.5932" transform="rotate(33.4739 822.731 874.223)" fill="white"/>
</g>
<defs>
<filter id="filter0_d_185_511" x="391.837" y="-839.797" width="698.404" height="2204.51" filterUnits="userSpaceOnUse" color-interpolation-filters="sRGB">
<feFlood flood-opacity="0" result="BackgroundImageFix"/>
<feColorMatrix in="SourceAlpha" type="matrix" values="0 0 0 0 0 0 0 0 0 0 0 0 0 0 0 0 0 0 127 0" result="hardAlpha"/>
<feOffset dy="-10"/>
<feGaussianBlur stdDeviation="2"/>
<feComposite in2="hardAlpha" operator="out"/>
<feColorMatrix type="matrix" values="0 0 0 0 0 0 0 0 0 0 0 0 0 0 0 0 0 0 0.25 0"/>
<feBlend mode="normal" in2="BackgroundImageFix" result="effect1_dropShadow_185_511"/>
<feBlend mode="normal" in="SourceGraphic" in2="effect1_dropShadow_185_511" result="shape"/>
</filter>
<filter id="filter1_d_185_511" x="209.937" y="-677" width="880.423" height="1605.66" filterUnits="userSpaceOnUse" color-interpolation-filters="sRGB">
<feFlood flood-opacity="0" result="BackgroundImageFix"/>
<feColorMatrix in="SourceAlpha" type="matrix" values="0 0 0 0 0 0 0 0 0 0 0 0 0 0 0 0 0 0 127 0" result="hardAlpha"/>
<feOffset dy="-10"/>
<feGaussianBlur stdDeviation="2"/>
<feComposite in2="hardAlpha" operator="out"/>
<feColorMatrix type="matrix" values="0 0 0 0 0 0 0 0 0 0 0 0 0 0 0 0 0 0 0.25 0"/>
<feBlend mode="normal" in2="BackgroundImageFix" result="effect1_dropShadow_185_511"/>
<feBlend mode="normal" in="SourceGraphic" in2="effect1_dropShadow_185_511" result="shape"/>
</filter>
<filter id="filter2_d_185_511" x="306.784" y="-889.002" width="842.07" height="1510.13" filterUnits="userSpaceOnUse" color-interpolation-filters="sRGB">
<feFlood flood-opacity="0" result="BackgroundImageFix"/>
<feColorMatrix in="SourceAlpha" type="matrix" values="0 0 0 0 0 0 0 0 0 0 0 0 0 0 0 0 0 0 127 0" result="hardAlpha"/>
<feOffset dy="-10"/>
<feGaussianBlur stdDeviation="2"/>
<feComposite in2="hardAlpha" operator="out"/>
<feColorMatrix type="matrix" values="0 0 0 0 0 0 0 0 0 0 0 0 0 0 0 0 0 0 0.25 0"/>
<feBlend mode="normal" in2="BackgroundImageFix" result="effect1_dropShadow_185_511"/>
<feBlend mode="normal" in="SourceGraphic" in2="effect1_dropShadow_185_511" result="shape"/>
</filter>
<filter id="filter3_d_185_511" x="633" y="-138.001" width="418" height="1368" filterUnits="userSpaceOnUse" color-interpolation-filters="sRGB">
<feFlood flood-opacity="0" result="BackgroundImageFix"/>
<feColorMatrix in="SourceAlpha" type="matrix" values="0 0 0 0 0 0 0 0 0 0 0 0 0 0 0 0 0 0 127 0" result="hardAlpha"/>
<feOffset dy="4"/>
<feGaussianBlur stdDeviation="2"/>
<feComposite in2="hardAlpha" operator="out"/>
<feColorMatrix type="matrix" values="0 0 0 0 0 0 0 0 0 0 0 0 0 0 0 0 0 0 0.25 0"/>
<feBlend mode="normal" in2="BackgroundImageFix" result="effect1_dropShadow_185_511"/>
<feBlend mode="normal" in="SourceGraphic" in2="effect1_dropShadow_185_511" result="shape"/>
</filter>
<filter id="filter4_df_185_511" x="447" y="238.999" width="67" height="70" filterUnits="userSpaceOnUse" color-interpolation-filters="sRGB">
<feFlood flood-opacity="0" result="BackgroundImageFix"/>
<feColorMatrix in="SourceAlpha" type="matrix" values="0 0 0 0 0 0 0 0 0 0 0 0 0 0 0 0 0 0 127 0" result="hardAlpha"/>
<feOffset dy="5"/>
<feGaussianBlur stdDeviation="2"/>
<feComposite in2="hardAlpha" operator="out"/>
<feColorMatrix type="matrix" values="0 0 0 0 0 0 0 0 0 0 0 0 0 0 0 0 0 0 0.25 0"/>
<feBlend mode="normal" in2="BackgroundImageFix" result="effect1_dropShadow_185_511"/>
<feBlend mode="normal" in="SourceGraphic" in2="effect1_dropShadow_185_511" result="shape"/>
<feGaussianBlur stdDeviation="1" result="effect2_foregroundBlur_185_511"/>
</filter>
<filter id="filter5_f_185_511" x="435.657" y="224.024" width="64.423" height="69.6419" filterUnits="userSpaceOnUse" color-interpolation-filters="sRGB">
<feFlood flood-opacity="0" result="BackgroundImageFix"/>
<feBlend mode="normal" in="SourceGraphic" in2="BackgroundImageFix" result="shape"/>
<feGaussianBlur stdDeviation="11.5" result="effect1_foregroundBlur_185_511"/>
</filter>
<filter id="filter6_df_185_511" x="604" y="627.999" width="122" height="125" filterUnits="userSpaceOnUse" color-interpolation-filters="sRGB">
<feFlood flood-opacity="0" result="BackgroundImageFix"/>
<feColorMatrix in="SourceAlpha" type="matrix" values="0 0 0 0 0 0 0 0 0 0 0 0 0 0 0 0 0 0 127 0" result="hardAlpha"/>
<feOffset dy="5"/>
<feGaussianBlur stdDeviation="2"/>
<feComposite in2="hardAlpha" operator="out"/>
<feColorMatrix type="matrix" values="0 0 0 0 0 0 0 0 0 0 0 0 0 0 0 0 0 0 0.25 0"/>
<feBlend mode="normal" in2="BackgroundImageFix" result="effect1_dropShadow_185_511"/>
<feBlend mode="normal" in="SourceGraphic" in2="effect1_dropShadow_185_511" result="shape"/>
<feGaussianBlur stdDeviation="1" result="effect2_foregroundBlur_185_511"/>
</filter>
<filter id="filter7_f_185_511" x="589.793" y="608.641" width="101.597" height="111.681" filterUnits="userSpaceOnUse" color-interpolation-filters="sRGB">
<feFlood flood-opacity="0" result="BackgroundImageFix"/>
<feBlend mode="normal" in="SourceGraphic" in2="BackgroundImageFix" result="shape"/>
<feGaussianBlur stdDeviation="16.5" result="effect1_foregroundBlur_185_511"/>
</filter>
<filter id="filter8_df_185_511" x="467" y="927.999" width="145" height="148" filterUnits="userSpaceOnUse" color-interpolation-filters="sRGB">
<feFlood flood-opacity="0" result="BackgroundImageFix"/>
<feColorMatrix in="SourceAlpha" type="matrix" values="0 0 0 0 0 0 0 0 0 0 0 0 0 0 0 0 0 0 127 0" result="hardAlpha"/>
<feOffset dy="5"/>
<feGaussianBlur stdDeviation="2"/>
<feComposite in2="hardAlpha" operator="out"/>
<feColorMatrix type="matrix" values="0 0 0 0 0 0 0 0 0 0 0 0 0 0 0 0 0 0 0.25 0"/>
<feBlend mode="normal" in2="BackgroundImageFix" result="effect1_dropShadow_185_511"/>
<feBlend mode="normal" in="SourceGraphic" in2="effect1_dropShadow_185_511" result="shape"/>
<feGaussianBlur stdDeviation="1" result="effect2_foregroundBlur_185_511"/>
</filter>
<filter id="filter9_f_185_511" x="449.126" y="904.111" width="122.737" height="134.843" filterUnits="userSpaceOnUse" color-interpolation-filters="sRGB">
<feFlood flood-opacity="0" result="BackgroundImageFix"/>
<feBlend mode="normal" in="SourceGraphic" in2="BackgroundImageFix" result="shape"/>
<feGaussianBlur stdDeviation="20" result="effect1_foregroundBlur_185_511"/>
</filter>
<filter id="filter10_df_185_511" x="793" y="845" width="98" height="101" filterUnits="userSpaceOnUse" color-interpolation-filters="sRGB">
<feFlood flood-opacity="0" result="BackgroundImageFix"/>
<feColorMatrix in="SourceAlpha" type="matrix" values="0 0 0 0 0 0 0 0 0 0 0 0 0 0 0 0 0 0 127 0" result="hardAlpha"/>
<feOffset dy="5"/>
<feGaussianBlur stdDeviation="2"/>
<feComposite in2="hardAlpha" operator="out"/>
<feColorMatrix type="matrix" values="0 0 0 0 0 0 0 0 0 0 0 0 0 0 0 0 0 0 0.25 0"/>
<feBlend mode="normal" in2="BackgroundImageFix" result="effect1_dropShadow_185_511"/>
<feBlend mode="normal" in="SourceGraphic" in2="effect1_dropShadow_185_511" result="shape"/>
<feGaussianBlur stdDeviation="1" result="effect2_foregroundBlur_185_511"/>
</filter>
<filter id="filter11_f_185_511" x="788.679" y="836.191" width="68.1029" height="76.0639" filterUnits="userSpaceOnUse" color-interpolation-filters="sRGB">
<feFlood flood-opacity="0" result="BackgroundImageFix"/>
<feBlend mode="normal" in="SourceGraphic" in2="BackgroundImageFix" result="shape"/>
<feGaussianBlur stdDeviation="10" result="effect1_foregroundBlur_185_511"/>
</filter>
</defs>
</svg>
